<svg width="903" height="1010" viewBox="0 0 903 1010" fill="none" xmlns="http://www.w3.org/2000/svg">
<g clip-path="url(#clip0_35_690)">
<path d="M469.22 503.83C468.377 505.171 467.808 506.666 467.545 508.227C467.282 509.789 467.332 511.388 467.69 512.93L490.79 611.93C490.79 612.05 490.79 612.18 490.87 612.31L517.73 727.46L470.54 807.77L423.24 727.52L456.83 509.11C457.312 506.001 456.546 502.828 454.7 500.28L424.48 458.57H497.81L469.22 503.88V503.83ZM529.94 440.83C528.904 438.963 527.388 437.405 525.55 436.319C523.711 435.232 521.615 434.656 519.48 434.65H401C398.798 434.663 396.642 435.28 394.768 436.436C392.894 437.592 391.374 439.241 390.374 441.203C389.375 443.165 388.934 445.364 389.101 447.559C389.268 449.755 390.035 451.862 391.32 453.65L399.32 464.71C399.469 464.922 399.629 465.126 399.8 465.32L432.42 510.32L399 728.05C398.582 730.776 399.115 733.562 400.51 735.94L460 837L460.28 837.46C461.34 839.218 462.834 840.674 464.618 841.69C466.402 842.705 468.417 843.246 470.47 843.26H470.52C472.564 843.255 474.573 842.728 476.356 841.729C478.14 840.73 479.638 839.291 480.71 837.55L480.96 837.14C481 837.083 481.037 837.023 481.07 836.96L540.76 735.4C542.307 732.754 542.783 729.616 542.09 726.63L514.23 607.19C514.23 607.06 514.18 606.93 514.15 606.8L492.15 512.36L529.64 452.94C530.773 451.131 531.402 449.052 531.464 446.918C531.526 444.784 531.017 442.672 529.99 440.8L529.94 440.83Z" fill="#EEFBFB"/>
<path d="M287.12 484.12L368.37 622L350.63 737.36C350.208 740.082 350.742 742.866 352.14 745.24L460.35 928.74C461.41 930.528 462.917 932.01 464.723 933.041C466.528 934.072 468.571 934.616 470.65 934.62V934.62C472.729 934.612 474.771 934.064 476.575 933.03C478.379 931.996 479.883 930.51 480.94 928.72L590.11 742.91C591.66 740.265 592.14 737.127 591.45 734.14L564.56 619L643.77 484.29C675.84 499.29 777.99 548.35 814.56 580.68C820.726 586.146 824.84 593.555 826.22 601.68L865.32 833.55L877.72 907.16C879.132 916.873 878.439 926.777 875.687 936.199C872.936 945.621 868.19 954.342 861.771 961.768C855.353 969.195 847.412 975.154 838.488 979.242C829.564 983.329 819.866 985.45 810.05 985.46L221.34 986.16C219.944 985.612 218.459 985.33 216.96 985.33H91.5398C91.1598 985.33 90.8098 985.33 90.4498 985.33H90.0798C80.0116 985.118 70.1179 982.659 61.1217 978.134C52.1255 973.608 44.2541 967.129 38.0827 959.171C31.9113 951.213 27.5959 941.977 25.4518 932.138C23.3076 922.298 23.389 912.104 25.6898 902.3L97.6098 594.15C98.0298 592.4 104.4 575.59 197.61 527.28C234.06 508.39 270.33 491.7 287.12 484.12ZM74.3398 588.72L2.40982 896.87C-0.678623 910.119 -0.774153 923.89 2.13018 937.181C5.03452 950.471 10.8656 962.947 19.1992 973.7C27.5327 984.453 38.1589 993.213 50.3044 999.342C62.4499 1005.47 75.8092 1008.81 89.4098 1009.13C90.0998 1009.13 90.7898 1009.13 91.5198 1009.13H211.3C212.697 1009.69 214.186 1009.97 215.69 1009.97H217L810.07 1009.26C823.323 1009.25 836.418 1006.38 848.466 1000.86C860.513 995.335 871.231 987.283 879.89 977.25C888.55 967.217 894.948 955.437 898.651 942.712C902.354 929.986 903.274 916.613 901.35 903.5V903.25L888.89 829.5L849.79 597.64C847.49 584.138 840.646 571.828 830.39 562.75C784.33 522 649.62 460.57 643.91 458C641.22 456.788 638.178 456.61 635.365 457.499C632.552 458.388 630.165 460.282 628.66 462.82L541.54 611C540.456 612.846 539.887 614.949 539.89 617.09C539.888 618.002 539.992 618.912 540.2 619.8L567.09 734.95L470.63 899.11L374.9 736.77L392.64 621.38C393.061 618.658 392.528 615.873 391.13 613.5L302.3 462.79C300.808 460.278 298.452 458.396 295.672 457.498C292.892 456.599 289.879 456.746 287.2 457.91C286.71 458.13 236.86 480.02 186.64 506.04C92.8698 554.64 77.3698 575.75 74.3398 588.72V588.72Z" fill="#EEFBFB"/>
<path d="M584.41 357.09C546.191 389.563 496.65 405.547 446.659 401.535C396.668 397.523 350.311 373.843 317.76 335.69C250.15 256.28 259.76 136.69 339.16 69.0503C373.23 39.8702 416.622 23.8536 461.48 23.9003C466.6 23.9003 471.76 24.1103 476.92 24.5203C514.209 27.5163 549.773 41.5019 579.114 64.7086C608.456 87.9153 630.257 119.301 641.762 154.897C653.268 190.494 653.96 228.702 643.751 264.692C633.542 300.682 612.892 332.836 584.41 357.09V357.09ZM674.16 230.09C677.523 188.09 668.357 146.036 647.821 109.244C627.286 72.4527 596.302 42.5761 558.789 23.3916C521.275 4.20715 478.915 -3.42371 437.065 1.46382C395.215 6.35135 355.753 23.5378 323.67 50.8503C234.22 127 223.41 261.74 299.56 351.19C326.877 383.274 363.095 406.537 403.634 418.038C444.172 429.539 487.211 428.76 527.307 415.801C567.403 402.842 602.756 378.285 628.895 345.234C655.035 312.183 670.787 272.123 674.16 230.12V230.09Z" fill="#EEFBFB"/>
<path d="M547.36 313.21C493.36 359.21 412.44 356.8 361.3 308.41L572.3 128.78C611.92 186.97 601.3 267.26 547.37 313.21H547.36ZM376.22 112.93C401.246 91.8122 432.878 80.1264 465.623 79.9017C498.367 79.677 530.156 90.9276 555.47 111.7L346.47 289.7C312.71 232.29 324.63 156.9 376.27 112.94L376.22 112.93ZM584.68 107.69C584.081 106.146 583.168 104.744 582 103.57C552.972 74.5849 514.097 57.5883 473.108 55.9607C432.119 54.3331 392.019 68.1938 360.784 94.7859C329.549 121.378 309.468 158.753 304.535 199.477C299.601 240.2 310.178 281.289 334.16 314.57C335.378 316.251 337.011 317.588 338.9 318.45C339.496 319.992 340.409 321.392 341.58 322.56C370.469 351.515 409.203 368.527 450.07 370.21C452.423 370.31 454.773 370.36 457.12 370.36C487.175 370.339 516.641 362.022 542.272 346.326C567.902 330.63 588.703 308.164 602.383 281.402C616.063 254.641 622.09 224.623 619.801 194.655C617.512 164.688 606.995 135.933 589.41 111.56C588.198 109.879 586.567 108.545 584.68 107.69V107.69Z" fill="#EEFBFB"/>
</g>
<defs>
<clipPath id="clip0_35_690">
<rect width="902.34" height="1010" fill="white"/>
</clipPath>
</defs>
</svg>
