<svg xmlns="http://www.w3.org/2000/svg" viewBox="0 0 129.87 88"><defs><style>.cls-1{fill:#e22826;}.cls-2{fill:#fff;}.cls-3{fill:#1d1d1b;}</style></defs><title>Asset 1</title><g id="Layer_2" data-name="Layer 2"><g id="Layer_1-2" data-name="Layer 1"><rect class="cls-1" width="88" height="88"/><path class="cls-2" d="M57.37,18.51l-4.45-6.05h-.69v6.05H51.08V5.83H53.4c2.75,0,4.12,1.13,4.12,3.45a3,3,0,0,1-3.3,3.18l4.55,6.05Zm-5.14-7h1.15c2,0,2.89-.46,2.89-2.27s-.87-2.41-2.89-2.41H52.23Z"/><path class="cls-2" d="M62.22,5.83H68.5V6.91H63.37v4H68.5V12H63.37v5.47H68.5v1.08H62.22Z"/><path class="cls-2" d="M73.09,5.83h2c2.18,0,3.87,0,5.22.83,1.64,1,2.6,3,2.6,5.52a6.28,6.28,0,0,1-2.14,5.16c-1.46,1.12-3.11,1.17-5.15,1.17h-2.5Zm2.18,11.69H76c1.59,0,2.83,0,3.79-.73a5.46,5.46,0,0,0,1.92-4.63,5.91,5.91,0,0,0-1.3-4.05c-1.17-1.29-2.62-1.33-4.75-1.33H74.24V17.52Z"/><path class="cls-1" d="M94.11,5.83h2.2a5.15,5.15,0,0,1,3.18.62,3.24,3.24,0,0,1,1.29,2.68,2.6,2.6,0,0,1-2,2.66,2.85,2.85,0,0,1,2.61,3,3.52,3.52,0,0,1-1.31,3c-1,.74-2.15.76-3.76.76H94.11Zm2.59,5.64c1.9,0,2.89-.46,2.89-2.26s-.88-2.37-2.89-2.37H95.26v4.63Zm0,6H97a3.61,3.61,0,0,0,2.3-.47,2.58,2.58,0,0,0,.89-2,2.46,2.46,0,0,0-1-2.2,3.75,3.75,0,0,0-2-.35H95.26v5.06Z"/><path class="cls-1" d="M116.68,16.9a6.87,6.87,0,0,1-4.81,2,6.75,6.75,0,0,1-4.79-2,6.57,6.57,0,0,1-2-4.71,6.48,6.48,0,0,1,2-4.73,7,7,0,0,1,9.6,0,6.62,6.62,0,0,1,0,9.44Zm.76-4.71a5.56,5.56,0,1,0-11.12,0,5.56,5.56,0,1,0,11.12,0Z"/><path class="cls-1" d="M120.86,18.51l3.87-6.67-3.49-6h1.29l2.86,5,2.89-5h1.24l-3.5,6,3.85,6.71H128.6l-3.23-5.62-3.25,5.62Z"/><path class="cls-3" d="M5.06,76.59H8.42v.57H5.68v2.13H8.32v.58H5.68v3.51H5.06Z"/><path class="cls-3" d="M11.24,76.59h.62v6.79h-.62Z"/><path class="cls-3" d="M18.35,83.38,16,80.14h-.37v3.24H15V76.59h1.24c1.47,0,2.2.6,2.2,1.85a1.6,1.6,0,0,1-1.76,1.7l2.44,3.24Zm-2.76-3.75h.62c1.06,0,1.55-.24,1.55-1.21s-.47-1.29-1.55-1.29h-.62Z"/><path class="cls-3" d="M21.42,76.59h3.36v.57H22v2.13h2.75v.58H22V82.8h2.75v.58H21.42Z"/><path class="cls-3" d="M35.18,77a2.86,2.86,0,0,0-3,3,2.83,2.83,0,0,0,2.88,3,3.53,3.53,0,0,0,2.2-.79v.72a4.16,4.16,0,0,1-2.16.64,3.57,3.57,0,1,1,2.21-6.41l0,.68A3.13,3.13,0,0,0,35.18,77Z"/><path class="cls-3" d="M46,82.51a3.65,3.65,0,0,1-2.58,1,3.57,3.57,0,0,1-2.56-1,3.51,3.51,0,0,1,0-5.05,3.54,3.54,0,0,1,2.56-1,3.59,3.59,0,0,1,2.58,1,3.54,3.54,0,0,1,0,5.05ZM46.38,80a3,3,0,1,0-3,3A3,3,0,0,0,46.38,80Z"/><path class="cls-3" d="M49.82,76.3,54.63,82V76.59h.58v7L50.4,77.89v5.49h-.58Z"/><path class="cls-3" d="M59.53,77.16H57.66v-.57H62v.57H60.15v6.22h-.62Z"/><path class="cls-3" d="M67.84,83.38l-2.38-3.24h-.37v3.24h-.62V76.59h1.24c1.47,0,2.21.6,2.21,1.85a1.61,1.61,0,0,1-1.77,1.7l2.44,3.24Zm-2.75-3.75h.61c1.06,0,1.55-.24,1.55-1.21s-.46-1.29-1.55-1.29h-.61Z"/><path class="cls-3" d="M76.79,82.51a3.65,3.65,0,0,1-2.58,1,3.57,3.57,0,0,1-2.56-1,3.56,3.56,0,0,1,2.56-6.08,3.59,3.59,0,0,1,2.58,1,3.54,3.54,0,0,1,0,5.05ZM77.2,80a3,3,0,1,0-3,3A3,3,0,0,0,77.2,80Z"/><path class="cls-3" d="M80.64,76.59h.62V82.8h2.33v.58h-3Z"/></g></g></svg>