<svg xmlns="http://www.w3.org/2000/svg" viewBox="0 0 1010 831.14"><defs><style>.cls-1{fill:#e22825;}</style></defs><g id="Layer_2" data-name="Layer 2"><g id="Layer_1-2" data-name="Layer 1"><g id="NewGroupe0"><g id="NewGroup38-0"><path class="cls-1" d="M787.77,293.78a68,68,0,1,1-68-68,68,68,0,0,1,68,68Zm-159,0A91.08,91.08,0,1,0,719.8,202.7a91.19,91.19,0,0,0-91.08,91.08Z"/><path class="cls-1" d="M831.75,340.45c0,47.47-76.76,94-112,110.77-35.19-16.79-111.94-63.3-111.94-110.77V191.63a195.23,195.23,0,0,0,62-17.37,195.18,195.18,0,0,0,49.89-33.55,195.23,195.23,0,0,0,49.9,33.55,195.16,195.16,0,0,0,62,17.37V340.45Zm12.16-171a172.31,172.31,0,0,1-64.41-16.1,172.79,172.79,0,0,1-51.37-36.8,11.55,11.55,0,0,0-16.66,0,172.53,172.53,0,0,1-51.37,36.8,172.26,172.26,0,0,1-64.4,16.1,11.55,11.55,0,0,0-11,11.54V340.45c0,32.21,22.38,64.74,66.53,96.69a399.84,399.84,0,0,0,63.8,37.36,11.53,11.53,0,0,0,9.44,0,399.21,399.21,0,0,0,63.81-37.36c44.14-31.95,66.53-64.48,66.53-96.69V181a11.56,11.56,0,0,0-11-11.54Z"/><path class="cls-1" d="M682.26,292.72a11.56,11.56,0,1,0-15.07,17.53l38.27,32.91A11.52,11.52,0,0,0,713,346a12.29,12.29,0,0,0,1.91-.15,11.6,11.6,0,0,0,8.07-5.56L768.76,262a11.56,11.56,0,1,0-20-11.67L710,316.6l-27.76-23.88Z"/><path class="cls-1" d="M482.71,741.11V808H292.51V741.11a37.25,37.25,0,0,1,37.21-37.21H445.51a37.25,37.25,0,0,1,37.2,37.21Zm-95.1-153.78a46.45,46.45,0,1,1-46.45,46.45,46.5,46.5,0,0,1,46.45-46.45ZM269.4,741.11v78.47A11.55,11.55,0,0,0,281,831.14H494.27a11.56,11.56,0,0,0,11.56-11.56V741.11a60.38,60.38,0,0,0-60.32-60.32h-6.67a69.56,69.56,0,1,0-102.46,0h-6.66a60.38,60.38,0,0,0-60.32,60.32Z"/><path class="cls-1" d="M735.38,808H545.18V741.11a37.25,37.25,0,0,1,37.21-37.21H698.17a37.25,37.25,0,0,1,37.21,37.21V808Zm-95.1-220.7a46.45,46.45,0,1,1-46.45,46.45,46.51,46.51,0,0,1,46.45-46.45Zm57.89,93.46h-6.66a69.57,69.57,0,1,0-102.46,0h-6.66a60.38,60.38,0,0,0-60.33,60.32v78.47a11.56,11.56,0,0,0,11.56,11.56H746.93a11.55,11.55,0,0,0,11.56-11.56V741.11a60.38,60.38,0,0,0-60.32-60.32Z"/><path class="cls-1" d="M986.89,808H796.68V741.11a37.26,37.26,0,0,1,37.21-37.21H949.68a37.25,37.25,0,0,1,37.21,37.21V808Zm-95.1-220.7a46.45,46.45,0,1,1-46.45,46.45,46.51,46.51,0,0,1,46.45-46.45Zm57.89,93.46H943a69.57,69.57,0,1,0-102.45,0h-6.67a60.38,60.38,0,0,0-60.32,60.32v78.47a11.56,11.56,0,0,0,11.56,11.56H998.44A11.55,11.55,0,0,0,1010,819.58V741.11a60.38,60.38,0,0,0-60.32-60.32Z"/><path class="cls-1" d="M23.11,346.23H56.68l6.16,1.24a11.26,11.26,0,0,0,2.29.23,11.41,11.41,0,0,0,5.62-1.47H87.69a11.66,11.66,0,0,0,2.46.27H266a11.64,11.64,0,0,0,2.45-.27h64.58v35.21H291.51a11.59,11.59,0,0,0-3.5-.54H68.18a11.54,11.54,0,0,0-3.5.54H23.11V346.23ZM52,193.56a12.48,12.48,0,0,0,.21-1.71,48.9,48.9,0,0,1,48.91-46.5h20.37L157.59,278.1a11.56,11.56,0,0,0,22.3,0L216,145.35h39.07a48.66,48.66,0,0,1,41.78,23.43,161.54,161.54,0,0,0,23.18,29.83L360.39,239a11.51,11.51,0,0,0,5.9,3.15l80.34,16.17a14.76,14.76,0,0,1,11.54,17.36,14.74,14.74,0,0,1-17.43,11.52L349.1,269.34l-74.89-74.89a11.56,11.56,0,0,0-19.73,8.17v120.5H101.7V211.79a11.55,11.55,0,0,0-22.88-2.28l-22.75,113-28.89-5.81L52,193.56Zm140.29-48.92-23.52,86.42-23.52-86.42a73.95,73.95,0,0,0,47,0ZM168.74,23.11a51.13,51.13,0,1,1-51.13,51.13,51.19,51.19,0,0,1,51.13-51.13ZM276.45,653.45H79.73V404.56H276.45V653.45ZM485.3,98.57h440V490.86h-440V98.57ZM56.62,665a11.57,11.57,0,0,0,11.56,11.56H288A11.56,11.56,0,0,0,299.56,665V404.56h45.07A11.56,11.56,0,0,0,356.18,393V334.68a11.55,11.55,0,0,0-11.55-11.56h-67v-92.6l57.66,57.66a11.56,11.56,0,0,0,6,3.17l95,18.48a37.49,37.49,0,0,0,25.92-4.07V502.41A11.56,11.56,0,0,0,473.74,514H936.86a11.56,11.56,0,0,0,11.56-11.56V87a11.57,11.57,0,0,0-11.56-11.56H473.74A11.57,11.57,0,0,0,462.18,87V239.69a37.49,37.49,0,0,0-11-4.06l-76.92-15.48-37.88-37.88a138.15,138.15,0,0,1-19.81-25.57,71.65,71.65,0,0,0-61.49-34.47H225.31a74.24,74.24,0,1,0-113.15,0H101.09a72,72,0,0,0-71.94,67.58L2.24,323.49a11.63,11.63,0,0,0,0,4.4A11.49,11.49,0,0,0,0,334.68V393a11.56,11.56,0,0,0,11.56,11.56H56.62V665Z"/></g></g></g></g></svg>