<svg xmlns="http://www.w3.org/2000/svg" viewBox="0 0 1010 948.08"><defs><style>.cls-1{fill:#e22825;}</style></defs><g id="Layer_2" data-name="Layer 2"><g id="Layer_1-2" data-name="Layer 1"><g id="NewGroupe0"><g id="NewGroup21-0"><path class="cls-1" d="M425,837l175.79-25.6v14.43A50.61,50.61,0,0,1,568,873a12.41,12.41,0,0,0-8.08,11.63v38.6H464.56v-38.6A12.42,12.42,0,0,0,456.49,873,50.73,50.73,0,0,1,425,837ZM298,494.74c0-118.14,96.11-214.25,214.25-214.25S726.47,376.6,726.47,494.74c0,82-45.68,155.6-119.22,192.06a12.41,12.41,0,0,0-6.82,12.48,50.37,50.37,0,0,1,.33,5.65v21.21L423.69,751.92v-47a52.64,52.64,0,0,1,.32-5.65,12.39,12.39,0,0,0-6.82-12.48C343.66,650.34,298,576.75,298,494.74ZM423.1,777.08l177.66-25.86v35.09L423.1,812.17V777.08Zm29,171H572.29a12.41,12.41,0,0,0,12.41-12.41V892.72a75.6,75.6,0,0,0,40.87-66.91V705.26A239.05,239.05,0,0,0,751.29,494.74c0-131.82-107.25-239.07-239.07-239.07S273.16,362.92,273.16,494.74A239.07,239.07,0,0,0,398.87,705.26v14.4a12.34,12.34,0,0,0-.58,3.77v103a12.28,12.28,0,0,0,.76,4.26,75.82,75.82,0,0,0,40.69,62v42.95a12.41,12.41,0,0,0,12.41,12.41Z"/><path class="cls-1" d="M447.28,325.11l-.16-.12-2.72-2.13c-5-4-10.59-3.8-15.46.82C382.67,357,348.45,398.47,329.5,449.79c-.54,1.44-1.25,2.82-1.65,4.31-1.32,5-.61,9.24,3.71,12.63l2.72,2.14.16.12c6.62,5,14.5,2.29,17.25-5.55,18.48-52.88,50.72-92.2,94.29-120.38,6.95-4.5,7.74-12.74,1.3-17.95Z"/><path class="cls-1" d="M653.9,20.42a12.41,12.41,0,0,0-15.54,8.15L579.23,218.1a12.41,12.41,0,0,0,8.15,15.54,12.56,12.56,0,0,0,3.7.57,12.41,12.41,0,0,0,11.84-8.72L662.05,36a12.4,12.4,0,0,0-8.15-15.54Z"/><path class="cls-1" d="M790,84.26a12.41,12.41,0,0,0-17.27,3.15L659.81,250.73a12.41,12.41,0,1,0,20.41,14.11l112.9-163.32A12.41,12.41,0,0,0,790,84.26Z"/><path class="cls-1" d="M883.43,183.59,727,305.88a12.41,12.41,0,0,0,15.29,19.55L898.71,203.15a12.41,12.41,0,0,0-15.28-19.56Z"/><path class="cls-1" d="M960.48,308.39,774.74,378.54a12.41,12.41,0,0,0,8.77,23.22L969.24,331.6a12.4,12.4,0,1,0-8.76-23.21Z"/><path class="cls-1" d="M1010,462.12a12.4,12.4,0,0,0-13.12-11.65L798.67,462.12a12.41,12.41,0,0,0,.71,24.79c.25,0,.49,0,.74,0l198.2-11.65A12.41,12.41,0,0,0,1010,462.12Z"/><path class="cls-1" d="M986.3,621.39a12.41,12.41,0,0,0,3-24.46L796.61,549a12.41,12.41,0,0,0-6,24.08L983.3,621a12.38,12.38,0,0,0,3,.37Z"/><path class="cls-1" d="M755.88,652.59,925.54,755.7a12.27,12.27,0,0,0,6.43,1.81,12.41,12.41,0,0,0,6.46-23L768.77,631.38a12.41,12.41,0,0,0-12.89,21.21Z"/><path class="cls-1" d="M492.59,12.41V211a12.41,12.41,0,1,0,24.82,0V12.41a12.41,12.41,0,1,0-24.82,0Z"/><path class="cls-1" d="M356.1,20.42A12.41,12.41,0,0,0,348,36l59.13,189.53a12.41,12.41,0,0,0,11.84,8.72,12.56,12.56,0,0,0,3.7-.57,12.41,12.41,0,0,0,8.15-15.54L371.64,28.57a12.41,12.41,0,0,0-15.54-8.15Z"/><path class="cls-1" d="M220,84.26a12.41,12.41,0,0,0-3.15,17.26l112.9,163.32a12.41,12.41,0,1,0,20.41-14.11L237.3,87.41A12.41,12.41,0,0,0,220,84.26Z"/><path class="cls-1" d="M275.33,328.06A12.41,12.41,0,0,0,283,305.88L126.57,183.59a12.41,12.41,0,0,0-15.28,19.56L267.7,325.43a12.37,12.37,0,0,0,7.63,2.63Z"/><path class="cls-1" d="M242.48,394.53a12.41,12.41,0,0,0-7.22-16L49.52,308.39a12.4,12.4,0,1,0-8.76,23.21l185.73,70.16a12.4,12.4,0,0,0,16-7.23Z"/><path class="cls-1" d="M11.68,475.24l198.2,11.65c.25,0,.49,0,.74,0a12.41,12.41,0,0,0,.71-24.79L13.14,450.47a12.41,12.41,0,1,0-1.46,24.77Z"/><path class="cls-1" d="M213.39,549,20.72,596.93a12.41,12.41,0,1,0,6,24.09l192.68-47.91a12.41,12.41,0,1,0-6-24.08Z"/><path class="cls-1" d="M78,757.51a12.27,12.27,0,0,0,6.43-1.81L254.12,652.59a12.41,12.41,0,1,0-12.89-21.21L71.57,734.5a12.41,12.41,0,0,0,6.46,23Z"/></g></g></g></g></svg>