<svg xmlns="http://www.w3.org/2000/svg" viewBox="0 0 1010 1010"><defs><style>.cls-1{fill:#c32128;}</style></defs><g id="Layer_2" data-name="Layer 2"><g id="Layer_1-2" data-name="Layer 1"><g id="NewGroupe0"><g id="NewGroup77-0"><path class="cls-1" d="M501.44,791.58a11.88,11.88,0,1,0,0-23.76H403.56A10,10,0,0,1,396,751.34L497.39,632.1a10,10,0,0,1,15.22,0L614.05,751.34a10,10,0,0,1-7.61,16.48H564.85A11.88,11.88,0,0,0,553,779.7V976.09a10.16,10.16,0,0,1-10.15,10.15H467.18A10.16,10.16,0,0,1,457,976.09V791.58ZM467.18,1010h75.64a34,34,0,0,0,33.91-33.91V791.58h29.71A33.76,33.76,0,0,0,632.15,736L530.71,616.7a33.75,33.75,0,0,0-51.43,0L377.85,736a33.76,33.76,0,0,0,25.71,55.63h29.71V976.09A34,34,0,0,0,467.18,1010Z"/><path class="cls-1" d="M614.05,258.66,512.61,377.9a10,10,0,0,1-15.22,0L396,258.66a10,10,0,0,1,7.61-16.48H520.45a11.88,11.88,0,0,0,0-23.76H457V33.91a10.16,10.16,0,0,1,10.15-10.15h75.64A10.16,10.16,0,0,1,553,33.91V230.3a11.88,11.88,0,0,0,11.88,11.88h41.59a10,10,0,0,1,7.61,16.48Zm23-20.64a33.43,33.43,0,0,0-30.64-19.6H576.73V33.91A34,34,0,0,0,542.82,0H467.18a34,34,0,0,0-33.91,33.91V218.42H403.56a33.76,33.76,0,0,0-25.71,55.63L479.29,393.3a33.75,33.75,0,0,0,51.43,0L632.15,274.05a33.41,33.41,0,0,0,4.93-36Z"/><path class="cls-1" d="M23.76,450.54A10.16,10.16,0,0,1,33.91,440.4H218.42v36.08a11.88,11.88,0,1,0,23.76,0V386.93a10,10,0,0,1,16.48-7.61L377.9,480.75a10,10,0,0,1,0,15.23L258.66,597.41a10,10,0,0,1-16.48-7.61V548.22a11.88,11.88,0,0,0-11.88-11.89H33.91a10.16,10.16,0,0,1-10.15-10.14V450.54ZM33.91,560.1H218.42v29.7A33.44,33.44,0,0,0,238,620.45a34,34,0,0,0,14.26,3.17,33.51,33.51,0,0,0,21.77-8.1L393.3,514.08a33.75,33.75,0,0,0,0-51.43L274.05,361.21a33.76,33.76,0,0,0-55.63,25.72v29.7H33.91A34,34,0,0,0,0,450.54v75.65A34,34,0,0,0,33.91,560.1Z"/><path class="cls-1" d="M986.24,526.19a10.16,10.16,0,0,1-10.15,10.14H779.7a11.88,11.88,0,0,0-11.88,11.89V589.8a10,10,0,0,1-16.48,7.61L632.1,496a10,10,0,0,1,0-15.23L751.34,379.32a9.53,9.53,0,0,1,6.33-2.41,10.5,10.5,0,0,1,4.34.95,9.84,9.84,0,0,1,5.81,9.07v93.12a11.88,11.88,0,0,0,23.76,0V440.4H976.09a10.16,10.16,0,0,1,10.15,10.14v75.65ZM976.09,416.63H791.58v-29.7A33.76,33.76,0,0,0,736,361.21L616.7,462.65a33.75,33.75,0,0,0,0,51.43L736,615.52a33.51,33.51,0,0,0,21.77,8.1A34,34,0,0,0,772,620.45a33.44,33.44,0,0,0,19.6-30.65V560.1H976.09A34,34,0,0,0,1010,526.19V450.54a34,34,0,0,0-33.91-33.91Z"/><path class="cls-1" d="M505,547.78A42.78,42.78,0,1,1,547.78,505,42.83,42.83,0,0,1,505,547.78Zm0-109.32A66.54,66.54,0,1,0,571.54,505,66.62,66.62,0,0,0,505,438.46Z"/></g></g></g></g></svg>