<svg xmlns="http://www.w3.org/2000/svg" viewBox="0 0 684.38 1010"><defs><style>.cls-1{fill:#c32128;}</style></defs><g id="Layer_2" data-name="Layer 2"><g id="Layer_1-2" data-name="Layer 1"><g id="NewGroupe0"><g id="NewGroup37-0"><path class="cls-1" d="M96.5,512.26l1.07-1.38c3.26-4.22,13.19-17.09,27.23-32.59,8.12-9,15.12-16,21.88-22.84,12.29-12.4,23.9-24.11,38.17-43.55,44.9-61.15,58.73-123.75,63.94-147.33,18.92-85.7,6-162.87-13-220.49A1153.74,1153.74,0,0,1,408.94,196.44c18.95,20.38,44.89,48.29,72.18,82.86a12.11,12.11,0,0,0,21.05-3.84,351.36,351.36,0,0,0,14.75-72.69,874,874,0,0,1,76.17,157.15C636.74,479.15,709.8,678.69,609.9,833.63c-28.78,44.63-68.81,82.55-114.54,109.83a171.68,171.68,0,0,0,28-47.75c.3-.78.77-2,1.08-2.89h0c5.45-14.84,21.78-67.45,3.28-121.6-7.39-21.65-19.35-37.08-41.08-65.09a338.59,338.59,0,0,0-31-35.12c-7-7.06-13-13.16-20.59-23.43-24.06-32.76-31.52-66.66-34.33-79.43-12.6-57.09,1.05-107.45,14.72-139.65a12.12,12.12,0,0,0-17.87-14.81A699.16,699.16,0,0,0,273.6,519.12c-7.76,8.35-17.47,18.81-28.1,31.23a132.24,132.24,0,0,1,5-60.76,12.11,12.11,0,0,0-23-7.52c-15.77,47-33.48,93-52.65,136.72-2.3,5.25-4.59,10.38-6.84,15.44-16.95,38-32.95,73.94-39.3,123.53a289.15,289.15,0,0,0-1.08,67.64c3.1,29.43,10.52,58.88,19.37,76.86a201.74,201.74,0,0,0,39.35,54.19c-63-29.85-122.92-81.06-149-158h0C-4.2,676.2,66,550.4,96.5,512.26Zm302.4,470-118.71,3.42c-47.64-15.08-90.22-51-111.44-94.14-7.56-15.36-14.24-42.33-17-68.7a265.37,265.37,0,0,1,1-62c5.89-46.05,20.49-78.81,37.39-116.74q3.4-7.65,6.9-15.57,13.77-31.38,26.49-64.18a156.79,156.79,0,0,0,4.65,16.18,12.11,12.11,0,0,0,20.94,3.53c15.9-20.12,30.49-35.83,42.21-48.44a673.85,673.85,0,0,1,89.2-80.22c-8.81,32.59-13.35,73.35-3.5,118,3.11,14.13,11.37,51.66,38.46,88.56,8.61,11.72,15.56,18.72,22.91,26.14A319,319,0,0,1,467.48,721c21.43,27.64,31.22,40.25,37.3,58.07,15.92,46.62,1.66,92.49-3.09,105.44a2,2,0,0,0-.08.22c-.13.36-.51,1.37-.87,2.29-16.2,42.22-54.19,77.72-101.84,95.3Zm-384.51-176c18.44,54.29,54.72,102.31,104.93,138.88,45.1,32.84,98.88,55.1,155.62,64.45a12.17,12.17,0,0,0,3.16.43h.42c.22,0,.43,0,.65,0l121.08-3.49a12.45,12.45,0,0,0,2.65-.12,12.64,12.64,0,0,0,2.69-.59c89.91-20.78,173.78-80.1,224.66-159C736.69,681.68,661,475.05,615.83,351.6a901.09,901.09,0,0,0-99.31-194.17,12.11,12.11,0,0,0-22.15,6.88,337.47,337.47,0,0,1-9.11,81.59c-22.27-26.89-42.81-49-58.58-66A1178.36,1178.36,0,0,0,217.51,2a12.11,12.11,0,0,0-17.86,14.82c23.72,55.83,47.4,143.23,25.49,242.5-5.37,24.3-17.93,81.19-59.81,138.22-13.21,18-23.7,28.57-35.85,40.83-6.95,7-14.14,14.25-22.64,23.63-14.67,16.21-25,29.64-28.44,34.05l-.8,1c-12.82,16-39.36,57-57.54,109.31-24.69,71-26.6,138.21-5.67,199.82Z"/></g></g></g></g></svg>