<svg width="702" height="1010" viewBox="0 0 702 1010" fill="none" xmlns="http://www.w3.org/2000/svg">
<g clip-path="url(#clip0_3_2)">
<path d="M350.79 68.83C357.598 68.83 364.252 70.8487 369.913 74.6308C375.573 78.4129 379.985 83.7886 382.59 90.078C385.195 96.3675 385.877 103.288 384.549 109.965C383.221 116.642 379.942 122.775 375.129 127.589C370.315 132.402 364.182 135.681 357.505 137.009C350.828 138.337 343.908 137.655 337.618 135.05C331.329 132.445 325.953 128.033 322.171 122.373C318.389 116.712 316.37 110.058 316.37 103.25C316.381 94.1245 320.01 85.3758 326.463 78.9231C332.916 72.4704 341.665 68.8406 350.79 68.83V68.83ZM350.79 161.49C362.309 161.49 373.569 158.074 383.146 151.675C392.724 145.275 400.189 136.179 404.597 125.537C409.005 114.896 410.158 103.185 407.911 91.8879C405.664 80.5905 400.117 70.2131 391.972 62.0681C383.827 53.9231 373.45 48.3763 362.152 46.1291C350.855 43.8819 339.145 45.0352 328.503 49.4433C317.861 53.8513 308.765 61.3161 302.365 70.8936C295.966 80.4711 292.55 91.7312 292.55 103.25C292.569 118.691 298.711 133.493 309.629 144.411C320.547 155.33 335.35 161.471 350.79 161.49V161.49Z" fill="white"/>
<path d="M603.62 902.31C603.62 907.349 601.618 912.182 598.055 915.745C594.492 919.308 589.659 921.31 584.62 921.31H117C111.961 921.31 107.128 919.308 103.565 915.745C100.002 912.182 98 907.349 98 902.31V240.07C98 235.031 100.002 230.198 103.565 226.635C107.128 223.072 111.961 221.07 117 221.07H584.61C589.649 221.07 594.482 223.072 598.045 226.635C601.608 230.198 603.61 235.031 603.61 240.07V902.31H603.62ZM584.62 197.24H117C105.644 197.251 94.7562 201.766 86.7263 209.796C78.6964 217.826 74.1806 228.714 74.17 240.07V902.31C74.1832 913.665 78.6999 924.551 86.7292 932.581C94.7585 940.61 105.645 945.127 117 945.14H584.61C595.965 945.127 606.851 940.61 614.881 932.581C622.91 924.551 627.427 913.665 627.44 902.31V240.07C627.429 228.714 622.914 217.826 614.884 209.796C606.854 201.766 595.966 197.251 584.61 197.24H584.62Z" fill="white"/>
<path d="M677.75 145V953.74C677.742 962.339 674.323 970.585 668.243 976.666C662.163 982.748 653.919 986.169 645.32 986.18H56.25C47.6505 986.169 39.4065 982.748 33.3267 976.666C27.2469 970.585 23.8279 962.339 23.82 953.74V145C23.8279 136.401 27.2469 128.155 33.3267 122.074C39.4065 115.992 47.6505 112.571 56.25 112.56H135C149.913 112.541 164.209 106.609 174.754 96.0643C185.299 85.5194 191.231 71.2227 191.25 56.31C191.258 47.7088 194.678 39.4622 200.76 33.3802C206.842 27.2983 215.089 23.8779 223.69 23.87H477.86C486.453 23.8779 494.692 27.2914 500.772 33.3625C506.853 39.4337 510.279 47.6675 510.3 56.26C510.319 71.1727 516.251 85.4694 526.796 96.0143C537.341 106.559 551.637 112.491 566.55 112.51H645.32C653.928 112.521 662.18 115.949 668.261 122.041C674.342 128.134 677.755 136.392 677.75 145V145ZM566.55 88.69C557.952 88.6794 549.71 85.2593 543.63 79.1798C537.551 73.1003 534.131 64.8577 534.12 56.26C534.101 41.3446 528.168 27.0454 517.621 16.4986C507.075 5.95185 492.775 0.0185235 477.86 0H223.71C208.795 0.0185235 194.495 5.95185 183.949 16.4986C173.402 27.0454 167.469 41.3446 167.45 56.26C167.439 64.8612 164.017 73.1068 157.933 79.1868C151.849 85.2669 143.601 88.6847 135 88.69H56.25C41.3269 88.7086 27.0211 94.6491 16.4745 105.207C5.92789 115.765 0.00263818 130.077 0 145L0 953.74C0.0158775 968.654 5.94698 982.954 16.4922 993.501C27.0374 1004.05 41.3355 1009.98 56.25 1010H645.32C660.234 1009.98 674.533 1004.05 685.078 993.501C695.623 982.954 701.554 968.654 701.57 953.74V145C701.554 130.086 695.623 115.786 685.078 105.239C674.533 94.6922 660.234 88.7585 645.32 88.74L566.55 88.69Z" fill="white"/>
<path d="M212.46 520.73C210.894 520.727 209.343 521.035 207.897 521.633C206.45 522.232 205.136 523.111 204.03 524.22L181.27 547L170.47 536.21L193.24 513.44C195.473 511.207 196.727 508.178 196.727 505.02C196.727 501.862 195.473 498.833 193.24 496.6L170.47 473.83L181.27 463L204 485.78C205.106 486.887 206.419 487.765 207.865 488.364C209.311 488.963 210.86 489.272 212.425 489.272C213.99 489.272 215.539 488.963 216.985 488.364C218.431 487.765 219.744 486.887 220.85 485.78L243.64 463L254.44 473.79L231.68 496.56C230.573 497.665 229.695 498.978 229.096 500.423C228.497 501.867 228.189 503.416 228.189 504.98C228.189 506.544 228.497 508.093 229.096 509.537C229.695 510.982 230.573 512.295 231.68 513.4L254.44 536.17L243.64 547L220.88 524.24C219.776 523.132 218.463 522.254 217.018 521.655C215.573 521.056 214.024 520.748 212.46 520.75V520.73ZM243.64 575.73C245.204 575.733 246.754 575.427 248.199 574.828C249.645 574.229 250.957 573.349 252.06 572.24L279.71 544.6C281.938 542.362 283.189 539.333 283.189 536.175C283.189 533.017 281.938 529.988 279.71 527.75L256.94 505L279.71 482.24C281.938 480.002 283.189 476.973 283.189 473.815C283.189 470.657 281.938 467.628 279.71 465.39L252.06 437.75C250.955 436.643 249.642 435.765 248.197 435.166C246.753 434.567 245.204 434.259 243.64 434.259C242.076 434.259 240.527 434.567 239.083 435.166C237.638 435.765 236.325 436.643 235.22 437.75L212.46 460.51L189.69 437.75C188.585 436.643 187.272 435.765 185.827 435.166C184.383 434.567 182.834 434.259 181.27 434.259C179.706 434.259 178.157 434.567 176.713 435.166C175.268 435.765 173.955 436.643 172.85 437.75L145.21 465.39C144.103 466.496 143.225 467.809 142.626 469.255C142.027 470.701 141.718 472.25 141.718 473.815C141.718 475.38 142.027 476.929 142.626 478.375C143.225 479.821 144.103 481.134 145.21 482.24L168 505L145.24 527.76C144.133 528.866 143.255 530.179 142.656 531.625C142.057 533.071 141.748 534.62 141.748 536.185C141.748 537.75 142.057 539.299 142.656 540.745C143.255 542.191 144.133 543.504 145.24 544.61L172.88 572.25C175.113 574.483 178.142 575.737 181.3 575.737C184.458 575.737 187.487 574.483 189.72 572.25L212.49 549.49L235.25 572.25C236.354 573.358 237.666 574.237 239.111 574.836C240.556 575.435 242.106 575.742 243.67 575.74L243.64 575.73Z" fill="white"/>
<path d="M377.23 349.64L354.47 326.88L365.27 316.08L388 338.85C390.235 341.083 393.265 342.338 396.425 342.338C399.585 342.338 402.615 341.083 404.85 338.85L427.61 316.08L438.41 326.88L415.64 349.64C413.412 351.878 412.161 354.907 412.161 358.065C412.161 361.223 413.412 364.252 415.64 366.49L438.41 389.25L427.61 400.05L404.85 377.29C403.744 376.183 402.431 375.305 400.985 374.706C399.539 374.107 397.99 373.798 396.425 373.798C394.86 373.798 393.311 374.107 391.865 374.706C390.419 375.305 389.106 376.183 388 377.29L365.24 400.05L354.44 389.25L377.2 366.49C378.307 365.384 379.185 364.071 379.784 362.625C380.383 361.179 380.692 359.63 380.692 358.065C380.692 356.5 380.383 354.951 379.784 353.505C379.185 352.059 378.307 350.746 377.2 349.64H377.23ZM352 358.07L329.2 380.83C326.967 383.063 325.713 386.092 325.713 389.25C325.713 392.408 326.967 395.437 329.2 397.67L356.85 425.32C359.086 427.548 362.114 428.798 365.27 428.798C368.426 428.798 371.454 427.548 373.69 425.32L396.45 402.55L419.22 425.32C421.456 427.548 424.484 428.798 427.64 428.798C430.796 428.798 433.824 427.548 436.06 425.32L463.7 397.67C464.807 396.565 465.685 395.252 466.284 393.807C466.883 392.363 467.191 390.814 467.191 389.25C467.191 387.686 466.883 386.137 466.284 384.693C465.685 383.248 464.807 381.935 463.7 380.83L440.94 358.07L463.7 335.3C464.807 334.195 465.685 332.882 466.284 331.437C466.883 329.993 467.191 328.444 467.191 326.88C467.191 325.316 466.883 323.767 466.284 322.323C465.685 320.878 464.807 319.565 463.7 318.46L436.06 290.82C434.955 289.713 433.642 288.835 432.197 288.236C430.753 287.637 429.204 287.329 427.64 287.329C426.076 287.329 424.527 287.637 423.082 288.236C421.638 288.835 420.325 289.713 419.22 290.82L396.45 313.58L373.69 290.82C371.457 288.587 368.428 287.333 365.27 287.333C362.112 287.333 359.083 288.587 356.85 290.82L329.21 318.46C326.977 320.693 325.723 323.722 325.723 326.88C325.723 330.038 326.977 333.067 329.21 335.3L352 358.07Z" fill="white"/>
<path d="M488.45 750.56C479.285 750.56 470.326 747.842 462.705 742.75C455.084 737.658 449.145 730.421 445.637 721.954C442.13 713.486 441.212 704.169 443 695.18C444.789 686.19 449.202 677.933 455.683 671.453C462.164 664.972 470.421 660.558 479.41 658.77C488.399 656.982 497.716 657.9 506.184 661.407C514.651 664.915 521.888 670.854 526.98 678.475C532.072 686.095 534.79 695.055 534.79 704.22C534.777 716.506 529.89 728.285 521.203 736.973C512.515 745.66 500.736 750.547 488.45 750.56V750.56ZM488.45 634.07C474.573 634.07 461.008 638.185 449.47 645.895C437.932 653.604 428.94 664.563 423.63 677.383C418.32 690.204 416.931 704.311 419.639 717.921C422.347 731.531 429.03 744.033 438.843 753.844C448.656 763.656 461.158 770.337 474.769 773.043C488.379 775.749 502.486 774.358 515.306 769.047C528.126 763.735 539.083 754.741 546.791 743.202C554.499 731.662 558.612 718.097 558.61 704.22C558.589 685.62 551.19 667.788 538.037 654.636C524.883 641.485 507.05 634.089 488.45 634.07V634.07Z" fill="white"/>
<path d="M541.45 405.15C542.028 401.717 541.231 398.194 539.231 395.345C537.231 392.495 534.189 390.548 530.764 389.925C527.339 389.301 523.806 390.052 520.931 392.015C518.055 393.977 516.068 396.993 515.4 400.41C504.15 462.22 480.4 511.41 444.74 546.54C415.94 574.95 385.31 589.09 355.69 602.76C319.18 619.61 284.69 635.53 262.46 675.25C243.84 708.51 239.08 749.39 248.26 796.84C240.827 798.954 234.344 803.553 229.893 809.869C225.441 816.186 223.291 823.838 223.8 831.549C224.31 839.26 227.449 846.563 232.693 852.239C237.937 857.915 244.969 861.62 252.615 862.737C260.262 863.855 268.06 862.315 274.708 858.377C281.357 854.438 286.454 848.339 289.148 841.096C291.842 833.853 291.971 825.906 289.513 818.579C287.054 811.253 282.158 804.992 275.64 800.84C275.714 799.64 275.623 798.435 275.37 797.26C265.97 753.72 269.37 717.01 285.56 688.15C303.56 655.92 332.88 642.41 366.79 626.76C397 612.82 431.23 597.01 463.33 565.35C502.93 526.29 529.21 472.35 541.45 405.11V405.15Z" fill="white"/>
<path d="M551.86 303.08L468.76 393.84C467.565 395.119 466.635 396.622 466.024 398.262C465.414 399.902 465.134 401.647 465.203 403.396C465.271 405.145 465.685 406.863 466.421 408.451C467.157 410.039 468.201 411.465 469.492 412.647C470.783 413.828 472.295 414.743 473.942 415.336C475.588 415.93 477.336 416.191 479.084 416.105C480.832 416.019 482.546 415.587 484.126 414.834C485.706 414.082 487.122 413.023 488.29 411.72L541.53 353.57L565.32 421.28C566.483 424.595 568.915 427.313 572.082 428.835C575.248 430.356 578.89 430.558 582.205 429.395C585.52 428.232 588.238 425.8 589.76 422.633C591.281 419.467 591.483 415.825 590.32 412.51L551.86 303.08Z" fill="white"/>
</g>
<defs>
<clipPath id="clip0_3_2">
<rect width="701.57" height="1010" fill="white"/>
</clipPath>
</defs>
</svg>
