<svg xmlns="http://www.w3.org/2000/svg" viewBox="0 0 902.34 1010"><defs><style>.cls-1{fill:#c32128;}</style></defs><g id="Layer_2" data-name="Layer 2"><g id="Layer_1-2" data-name="Layer 1"><g id="NewGroupe0"><g id="NewGroup27-0"><path class="cls-1" d="M469.22,503.83a12,12,0,0,0-1.53,9.1l23.1,99c0,.12,0,.25.08.38l26.86,115.15-47.19,80.31-47.3-80.25,33.59-218.41a11.93,11.93,0,0,0-2.13-8.83l-30.22-41.71h73.33l-28.59,45.31Zm60.72-63a12,12,0,0,0-10.46-6.18H401a12,12,0,0,0-9.68,19l8,11.06a7.16,7.16,0,0,0,.48.61l32.62,45L399,728.05a12,12,0,0,0,1.51,7.89L460,837l.28.46a12,12,0,0,0,10.19,5.8h.05a12,12,0,0,0,10.19-5.71l.25-.41a1.74,1.74,0,0,0,.11-.18L540.76,735.4a12,12,0,0,0,1.33-8.77L514.23,607.19c0-.13-.05-.26-.08-.39l-22-94.44,37.49-59.42a12,12,0,0,0,.35-12.14Z"/><path class="cls-1" d="M287.12,484.12,368.37,622,350.63,737.36a11.93,11.93,0,0,0,1.51,7.88l108.21,183.5a12,12,0,0,0,10.3,5.88h0a12,12,0,0,0,10.29-5.9L590.11,742.91a12,12,0,0,0,1.34-8.77L564.56,619l79.21-134.71c32.07,15,134.22,64.06,170.79,96.39a36.15,36.15,0,0,1,11.66,21l39.1,231.87,12.4,73.61a68.45,68.45,0,0,1-67.67,78.3l-588.71.7a12,12,0,0,0-4.38-.83H91.54c-.38,0-.73,0-1.09,0h-.37A67.6,67.6,0,0,1,25.69,902.3L97.61,594.15c.42-1.75,6.79-18.56,100-66.87,36.45-18.89,72.72-35.58,89.51-43.16ZM74.34,588.72,2.41,896.87a91.51,91.51,0,0,0,87,112.26c.69,0,1.38,0,2.11,0H211.3a11.87,11.87,0,0,0,4.39.84H217l593.07-.71A92.35,92.35,0,0,0,901.35,903.5l0-.25L888.89,829.5l-39.1-231.86a60.06,60.06,0,0,0-19.4-34.89C784.33,522,649.62,460.57,643.91,458a12,12,0,0,0-15.25,4.82L541.54,611a12,12,0,0,0-1.65,6.09,11.8,11.8,0,0,0,.31,2.71l26.89,115.15L470.63,899.11,374.9,736.77l17.74-115.39a11.93,11.93,0,0,0-1.51-7.88L302.3,462.79a12,12,0,0,0-15.1-4.88c-.49.22-50.34,22.11-100.56,48.13-93.77,48.6-109.27,69.71-112.3,82.68Z"/><path class="cls-1" d="M584.41,357.09a189.35,189.35,0,0,1-266.65-21.4c-67.61-79.41-58-199,21.4-266.64A187.74,187.74,0,0,1,461.48,23.9c5.12,0,10.28.21,15.44.62A189.16,189.16,0,0,1,584.41,357.09Zm89.75-127A213.06,213.06,0,0,0,323.67,50.85C234.22,127,223.41,261.74,299.56,351.19a213.06,213.06,0,0,0,374.6-121.07Z"/><path class="cls-1" d="M547.36,313.21c-54,46-134.92,43.59-186.06-4.8l211-179.63c39.62,58.19,29,138.48-24.93,184.43ZM376.22,112.93a140.12,140.12,0,0,1,179.25-1.23l-209,178c-33.76-57.41-21.84-132.8,29.8-176.76Zm208.46-5.24a12,12,0,0,0-2.68-4.12,163.28,163.28,0,0,0-247.84,211,12,12,0,0,0,4.74,3.88,11.82,11.82,0,0,0,2.68,4.11,162.71,162.71,0,0,0,108.49,47.65q3.53.15,7.05.15A163.27,163.27,0,0,0,589.41,111.56a11.88,11.88,0,0,0-4.73-3.87Z"/></g></g></g></g></svg>