<svg xmlns="http://www.w3.org/2000/svg" viewBox="0 0 1010 958.76"><defs><style>.cls-1{fill:#c32128;}</style></defs><g id="Layer_2" data-name="Layer 2"><g id="Layer_1-2" data-name="Layer 1"><g id="NewGroupe0"><g id="NewGroup97-0"><path class="cls-1" d="M740.9,173.1l21.27,20-21.27,20v-40Zm-24.2-55.93V269l80.8-75.92-80.8-75.92Z"/><path class="cls-1" d="M800.11,259.57l16.41-15.42,16.41,15.42ZM739,283.76H894L816.52,211,739,283.76Z"/><path class="cls-1" d="M985.8,934.56H24.2V24.2H985.8V934.56ZM997.9,0H12.1A12.1,12.1,0,0,0,0,12.1V946.66a12.1,12.1,0,0,0,12.1,12.1H997.9a12.1,12.1,0,0,0,12.1-12.1V12.1A12.1,12.1,0,0,0,997.9,0Z"/><path class="cls-1" d="M840.76,119.26,816.52,142l-24.23-22.77Zm61.08-24.2H731.2l85.32,80.17,85.32-80.17Z"/><path class="cls-1" d="M107.16,657.26H453a12.1,12.1,0,0,0,0-24.2H421.93V558.71c16.18,5.81,36.27,17.9,48.92,43.09,6.34,12.59,10.28,27.52,11.72,44.39a12.09,12.09,0,0,0,12.05,11.07h62.54V851.6h-450V657.26Zm0-73V481.57H351.27a12.1,12.1,0,0,0,12.1-12.1V370.73c38.74-22.92,49.94-60.73,53-76.53a12.11,12.11,0,0,0-11.88-14.4H363.37V107.16H655.8v203a12.13,12.13,0,0,0,0,12.77v76.58c-39.53,22.83-50.92,61.11-54,77.13a12.11,12.11,0,0,0,11.88,14.4H655.8V851.6H630.16V596.36a12.1,12.1,0,0,0-12.1-12.1H492.9a11.91,11.91,0,0,0-3.74.6c-22.86-39.44-61.1-50.78-77-53.85a12.09,12.09,0,0,0-14.39,11.88v41.37ZM301.42,364.62a12.09,12.09,0,0,0-11.05,12.05v31.9H107.16V107.16H290.37v215a12.1,12.1,0,0,0,24.2,0V304h74.08c-5.6,15.61-17.07,34.88-40.49,47.57a12,12,0,0,0-4.37,2.19c-12.17,5.8-26.4,9.48-42.37,10.87Zm416.26,41.56a12.1,12.1,0,0,0,11.12-12.06V344.66h174V851.6h-174V443.09a12.1,12.1,0,1,0-24.19,0v23.78H629.48c5.83-16.21,18-36.32,43.18-49a11.43,11.43,0,0,0,1.06-.51c12.53-6.1,27.31-9.88,44-11.22ZM95.06,875.79h474.2a12.09,12.09,0,0,0,12.09-12.09V645.16a12.09,12.09,0,0,0-12.09-12.1H505.38a150.37,150.37,0,0,0-5.76-24.6H606V863.7a12.09,12.09,0,0,0,12.1,12.09H667.9A12.09,12.09,0,0,0,680,863.7V491.07h24.61V863.7a12.09,12.09,0,0,0,12.09,12.09H914.94A12.09,12.09,0,0,0,927,863.7V332.57a12.1,12.1,0,0,0-12.1-12.1H716.7a12.09,12.09,0,0,0-12.09,12.1v50.74A151.51,151.51,0,0,0,680,388.93V318.51a12.29,12.29,0,0,0-.14-1.82,12.29,12.29,0,0,0,.14-1.82V95.06A12.1,12.1,0,0,0,667.9,83H351.27a12.09,12.09,0,0,0-12.09,12.1V279.8H314.57V95.06A12.1,12.1,0,0,0,302.47,83H95.06A12.1,12.1,0,0,0,83,95.06V420.67a12.1,12.1,0,0,0,12.1,12.1H302.47a12.1,12.1,0,0,0,12.1-12.1V387.41a150.75,150.75,0,0,0,24.61-5.81v75.78H95.06A12.09,12.09,0,0,0,83,469.47V596.36a12.1,12.1,0,0,0,12.1,12.1H397.74v24.6H95.06A12.1,12.1,0,0,0,83,645.16V863.7a12.09,12.09,0,0,0,12.1,12.09Z"/><path class="cls-1" d="M890.74,211.76l-19.87-18.67,19.87-18.68v37.35Zm24.2-93.29-79.4,74.62,79.4,74.6V118.47Z"/></g></g></g></g></svg>