<svg xmlns="http://www.w3.org/2000/svg" viewBox="0 0 701.57 1010"><defs><style>.cls-1{fill:#c32128;}</style></defs><g id="Layer_2" data-name="Layer 2"><g id="Layer_1-2" data-name="Layer 1"><g id="NewGroupe0"><g id="NewGroup14-0"><path class="cls-1" d="M350.79,68.83a34.42,34.42,0,1,1-34.42,34.42,34.46,34.46,0,0,1,34.42-34.42Zm0,92.66a58.24,58.24,0,1,0-58.24-58.24,58.31,58.31,0,0,0,58.24,58.24Z"/><path class="cls-1" d="M603.62,902.31a19,19,0,0,1-19,19H117a19,19,0,0,1-19-19V240.07a19,19,0,0,1,19-19H584.61a19,19,0,0,1,19,19V902.31Zm-19-705.07H117a42.87,42.87,0,0,0-42.83,42.83V902.31A42.88,42.88,0,0,0,117,945.14H584.61a42.88,42.88,0,0,0,42.83-42.83V240.07a42.87,42.87,0,0,0-42.83-42.83Z"/><path class="cls-1" d="M677.75,145V953.74a32.47,32.47,0,0,1-32.43,32.44H56.25a32.47,32.47,0,0,1-32.43-32.44V145a32.47,32.47,0,0,1,32.43-32.44H135a56.32,56.32,0,0,0,56.25-56.25,32.47,32.47,0,0,1,32.44-32.44H477.86A32.47,32.47,0,0,1,510.3,56.26a56.32,56.32,0,0,0,56.25,56.25h78.77A32.47,32.47,0,0,1,677.75,145ZM566.55,88.69a32.47,32.47,0,0,1-32.43-32.43A56.33,56.33,0,0,0,477.86,0H223.71a56.33,56.33,0,0,0-56.26,56.26A32.47,32.47,0,0,1,135,88.69H56.25A56.32,56.32,0,0,0,0,145V953.74A56.32,56.32,0,0,0,56.25,1010H645.32a56.32,56.32,0,0,0,56.25-56.26V145a56.32,56.32,0,0,0-56.25-56.26Z"/><path class="cls-1" d="M212.46,520.73a11.88,11.88,0,0,0-8.43,3.49L181.27,547l-10.8-10.79,22.77-22.77a11.91,11.91,0,0,0,0-16.84l-22.77-22.77L181.27,463,204,485.78a11.91,11.91,0,0,0,16.85,0L243.64,463l10.8,10.79-22.76,22.77a11.9,11.9,0,0,0,0,16.84l22.76,22.77L243.64,547l-22.76-22.76a11.87,11.87,0,0,0-8.42-3.49Zm31.18,55a11.84,11.84,0,0,0,8.42-3.49l27.65-27.64a11.94,11.94,0,0,0,0-16.85L256.94,505l22.77-22.76a11.94,11.94,0,0,0,0-16.85l-27.65-27.64a11.9,11.9,0,0,0-16.84,0l-22.76,22.76-22.77-22.76a11.9,11.9,0,0,0-16.84,0l-27.64,27.64a11.91,11.91,0,0,0,0,16.85L168,505l-22.76,22.76a11.91,11.91,0,0,0,0,16.85l27.64,27.64a11.91,11.91,0,0,0,16.84,0l22.77-22.76,22.76,22.76a11.86,11.86,0,0,0,8.42,3.49Z"/><path class="cls-1" d="M377.23,349.64l-22.76-22.76,10.8-10.8L388,338.85a11.92,11.92,0,0,0,16.85,0l22.76-22.77,10.8,10.8-22.77,22.76a11.94,11.94,0,0,0,0,16.85l22.77,22.76-10.8,10.8-22.76-22.76a11.91,11.91,0,0,0-16.85,0l-22.76,22.76-10.8-10.8,22.76-22.76a11.91,11.91,0,0,0,0-16.85ZM352,358.07,329.2,380.83a11.91,11.91,0,0,0,0,16.84l27.65,27.65a11.93,11.93,0,0,0,16.84,0l22.76-22.77,22.77,22.77a11.93,11.93,0,0,0,16.84,0l27.64-27.65a11.9,11.9,0,0,0,0-16.84l-22.76-22.76L463.7,335.3a11.9,11.9,0,0,0,0-16.84l-27.64-27.64a11.9,11.9,0,0,0-16.84,0l-22.77,22.76-22.76-22.76a11.91,11.91,0,0,0-16.84,0l-27.64,27.64a11.91,11.91,0,0,0,0,16.84L352,358.07Z"/><path class="cls-1" d="M488.45,750.56a46.34,46.34,0,1,1,46.34-46.34,46.39,46.39,0,0,1-46.34,46.34Zm0-116.49a70.16,70.16,0,1,0,70.16,70.15,70.23,70.23,0,0,0-70.16-70.15Z"/><path class="cls-1" d="M541.45,405.15a13.24,13.24,0,0,0-26.05-4.74c-11.25,61.81-35,111-70.66,146.13-28.8,28.41-59.43,42.55-89.05,56.22-36.51,16.85-71,32.77-93.23,72.49-18.62,33.26-23.38,74.14-14.2,121.59a33.77,33.77,0,1,0,27.38,4,13.18,13.18,0,0,0-.27-3.58c-9.4-43.54-6-80.25,10.19-109.11,18-32.23,47.32-45.74,81.23-61.39,30.21-13.94,64.44-29.75,96.54-61.41,39.6-39.06,65.88-93,78.12-160.24Z"/><path class="cls-1" d="M551.86,303.08l-83.1,90.76a13.24,13.24,0,1,0,19.53,17.88l53.24-58.15,23.79,67.71a13.24,13.24,0,0,0,25-8.77L551.86,303.08Z"/></g></g></g></g></svg>