<svg xmlns="http://www.w3.org/2000/svg" viewBox="0 0 441.62 1010"><defs><style>.cls-1{fill:#e22825;}</style></defs><g id="Layer_2" data-name="Layer 2"><g id="Layer_1-2" data-name="Layer 1"><g id="NewGroupe0"><g id="NewGroup76-0"><path class="cls-1" d="M240.18,130.31a11.88,11.88,0,0,0,11.88-11.88v-18l.5-.22L401.74,29.14a23.46,23.46,0,0,1-1.21,5.36,22.75,22.75,0,0,1-11.73,13L320.6,80a11.88,11.88,0,0,0-6.77,10.72v32.57L313,160.4a30.67,30.67,0,0,1-8.91,15.25,11.88,11.88,0,0,0,8.12,20.55h1.66v52.26a11.89,11.89,0,0,0,9.71,11.68,232.06,232.06,0,0,1,70.24,25.43c8.2,4.59,13.1,12.4,13.1,20.88V577.29a11.88,11.88,0,0,0,11,11.85v28.32a11.87,11.87,0,0,0-11,11.84V969.4a464.56,464.56,0,0,1-247.86,0V629.3a11.88,11.88,0,0,0-11.88-11.88H88.32l-5-28.25h63.84A11.88,11.88,0,0,0,159,577.29v-271c0-8.41,4.79-16.16,12.82-20.72A223.25,223.25,0,0,1,242.32,260a11.87,11.87,0,0,0,9.74-11.68V196.2h1.66a11.88,11.88,0,0,0,8.12-20.55,30.63,30.63,0,0,1-9.78-22.54V152a11.88,11.88,0,0,0-11.88-11.88H202.36v-9.76ZM68.34,942.21l29.16-301h37.76v301Zm-14-462.71c-15.72-56.59-25.51-109-29.09-155.86-6.48-84.78,8.1-143,43.33-173.07,23.55-20.11,60.55-25.69,110-16.65v18a11.88,11.88,0,0,0,11.88,11.88h38.9a55,55,0,0,0,3.5,11.11,11.87,11.87,0,0,0-4.58,9.38v54.3A246.77,246.77,0,0,0,160.1,265c-15.32,8.71-24.84,24.57-24.84,41.38V565.41H83.6c-3.2-9.86-6.47-18.56-9.9-27.65C68,522.58,61.51,505.37,54.32,479.5ZM190.48,106.55a11.81,11.81,0,0,0-8.69,3.81c-56.36-10.08-99.61-2.66-128.66,22.13-41.32,35.27-58.68,100.19-51.59,193,3.7,48.36,13.76,102.33,29.89,160.41,7.47,26.89,14.15,44.63,20,60.27,3,7.84,5.79,15.37,8.53,23.56a11.82,11.82,0,0,0-2.57,9.68l9,50.39a11.85,11.85,0,0,0,7.47,9L43.43,952.94a11.87,11.87,0,0,0,11.82,13h80v12.4a11.89,11.89,0,0,0,8.5,11.39,488.81,488.81,0,0,0,128.53,20.13c3.55.08,7.11.12,10.66.12a488.86,488.86,0,0,0,139.19-20.25,11.89,11.89,0,0,0,8.5-11.39V641.15a11.88,11.88,0,0,0,11-11.85v-52a11.87,11.87,0,0,0-11-11.84v-259c0-16.94-9.68-32.89-25.24-41.61a257.12,257.12,0,0,0-67.81-26.06V184.32A11.85,11.85,0,0,0,333,175a54.52,54.52,0,0,0,3.4-10.71,10.86,10.86,0,0,0,.24-2.13l0-1.67,64,26.66a23.13,23.13,0,0,0-12.46-30.23l-51-21.22.06-2.55a12.24,12.24,0,0,0,.22-2.28V98.25L399,69a46.65,46.65,0,0,0,22-62.19,11.89,11.89,0,0,0-15.84-5.61L244.76,77.66h-4.58A11.88,11.88,0,0,0,228.3,89.54v3.07a17.75,17.75,0,0,0,0,8.75v5.19Z"/><path class="cls-1" d="M202.36,388.68H363.53v96H202.36v-96ZM178.6,376.8V496.56a11.88,11.88,0,0,0,11.88,11.88H375.41a11.88,11.88,0,0,0,11.88-11.88V376.8a11.88,11.88,0,0,0-11.88-11.88H190.48A11.88,11.88,0,0,0,178.6,376.8Z"/></g></g></g></g></svg>