<svg xmlns="http://www.w3.org/2000/svg" viewBox="0 0 608.32 1010"><defs><style>.cls-1{fill:#e22825;}</style></defs><g id="Layer_2" data-name="Layer 2"><g id="Layer_1-2" data-name="Layer 1"><g id="NewGroupe0"><g id="NewGroup50-0"><path class="cls-1" d="M583.86,913.33,194.31,983.16V27l389.55,73.15V913.33ZM85,911.34l.25-777.09h84.65V911.34Zm-43.24,0H24.46V68.44H169.85V109.8H73A12.22,12.22,0,0,0,60.75,122L60.5,911.34ZM598.35,78,184.34.21a12.23,12.23,0,0,0-14.49,12V44H12.23A12.23,12.23,0,0,0,0,56.22V923.56a12.23,12.23,0,0,0,12.23,12.23H169.85v62a12.24,12.24,0,0,0,14.39,12l414-74.21a12.24,12.24,0,0,0,10.07-12V90a12.22,12.22,0,0,0-10-12Z"/><path class="cls-1" d="M286.89,502.26a30.08,30.08,0,1,1-30.09,30.08,30.12,30.12,0,0,1,30.09-30.08Zm0,84.62a54.54,54.54,0,1,0-54.54-54.54,54.61,54.61,0,0,0,54.54,54.54Z"/></g></g></g></g></svg>