<svg xmlns="http://www.w3.org/2000/svg" viewBox="0 0 1010 937.57"><defs><style>.cls-1{fill:#e22825;}</style></defs><g id="Layer_2" data-name="Layer 2"><g id="Layer_1-2" data-name="Layer 1"><g id="NewGroupe0"><path class="cls-1" d="M977,481.61a34.21,34.21,0,0,1-48.32,2.64l-56.56-50.7-328-294a58.44,58.44,0,0,0-78.12,0l-328,294.05-56.57,50.7A34.21,34.21,0,0,1,35.66,433.3L442.22,68.86l39.94-35.8a34.18,34.18,0,0,1,45.7,0L974.36,433.3A34.25,34.25,0,0,1,977,481.61ZM851.87,819.14a94.25,94.25,0,0,1-94.15,94.14H655.33v-234A150.95,150.95,0,0,0,505.47,528.38c-39.92-.28-77.77,15.32-106.56,43.91A152.19,152.19,0,0,0,353.46,681V913.28H252.31a94.25,94.25,0,0,1-94.15-94.14V467.35a32.84,32.84,0,0,1,10.91-24.44L489.9,155.33a22.61,22.61,0,0,1,30.22,0L841,442.91a32.85,32.85,0,0,1,10.92,24.44V819.14ZM631,913.28H377.75V681A128.07,128.07,0,0,1,416,589.52c24-23.79,55.31-36.85,88.39-36.85h.88A126.66,126.66,0,0,1,631,679.31v234ZM990.57,415.21,544.07,15A58.44,58.44,0,0,0,466,15L19.45,415.21a58.5,58.5,0,0,0,35.86,102c1.1.06,2.18.09,3.27.09a58,58,0,0,0,39-14.95l36.32-32.54V819.14A118.57,118.57,0,0,0,252.31,937.57H757.72A118.57,118.57,0,0,0,876.15,819.14V469.79l36.31,32.54a58.5,58.5,0,1,0,78.11-87.12Z"/></g></g></g></svg>