<svg width="748" height="1010" viewBox="0 0 748 1010" fill="none" xmlns="http://www.w3.org/2000/svg">
<g clip-path="url(#clip0_5_10)">
<path d="M306.48 559.54C281.56 559.506 257.671 549.591 240.05 531.97C222.429 514.349 212.514 490.46 212.48 465.54V456.07C212.541 455.613 212.571 455.151 212.57 454.69V339.85C212.57 336.699 211.318 333.678 209.09 331.45C206.863 329.222 203.841 327.97 200.69 327.97C197.539 327.97 194.518 329.222 192.29 331.45C190.062 333.678 188.81 336.699 188.81 339.85V416.39L132.23 347.56C125.865 339.815 121.828 330.425 120.585 320.478C119.343 310.531 120.947 300.435 125.212 291.363C129.476 282.291 136.226 274.615 144.677 269.224C153.129 263.834 162.936 260.951 172.96 260.91C176.3 263.51 179.79 266.15 183.65 268.98C185.167 270.088 186.919 270.831 188.77 271.15C200.64 278.15 242.06 300.73 301.44 312.85C326.257 317.945 351.525 320.528 376.86 320.56C392.18 320.569 407.485 319.59 422.68 317.63C469.87 311.52 515.55 295.8 558.59 270.93C560.081 270.531 561.482 269.852 562.72 268.93C566.58 266.1 570.07 263.46 573.39 260.93C583.59 260.973 593.561 263.959 602.106 269.53C610.652 275.1 617.408 283.017 621.564 292.332C625.721 301.647 627.101 311.964 625.539 322.044C623.978 332.124 619.54 341.539 612.76 349.16L558.33 410.33V339.85C558.376 338.26 558.103 336.677 557.526 335.195C556.95 333.713 556.082 332.361 554.974 331.221C553.865 330.08 552.54 329.173 551.075 328.554C549.61 327.934 548.035 327.615 546.445 327.615C544.855 327.615 543.28 327.934 541.815 328.554C540.35 329.173 539.025 330.08 537.916 331.221C536.808 332.361 535.94 333.713 535.364 335.195C534.787 336.677 534.514 338.26 534.56 339.85V465.13C534.534 490.159 524.58 514.156 506.882 531.855C489.185 549.554 465.189 559.511 440.16 559.54C436.907 559.543 433.787 560.836 431.487 563.137C429.186 565.437 427.893 568.557 427.89 571.81V594.46C427.911 614.019 435.69 632.77 449.52 646.6C463.35 660.43 482.101 668.209 501.66 668.23C536.161 668.115 569.574 680.294 595.908 702.583C622.242 724.873 639.774 755.815 645.36 789.86C649.453 814.272 656.311 838.139 665.8 861L717.55 986.26H679L678.87 924.42C678.87 921.271 677.62 918.251 675.394 916.023C673.168 913.795 670.149 912.543 667 912.54C665.439 912.543 663.894 912.853 662.453 913.453C661.012 914.053 659.703 914.931 658.602 916.037C657.5 917.143 656.628 918.456 656.034 919.899C655.44 921.343 655.136 922.889 655.14 924.45L655.26 986.24H96.78L96.66 924.4C96.6547 921.253 95.4007 918.236 93.1734 916.013C90.946 913.789 87.9273 912.54 84.78 912.54V912.54C83.2174 912.54 81.6701 912.848 80.2268 913.447C78.7835 914.046 77.4725 914.924 76.369 916.03C75.2654 917.136 74.391 918.45 73.7957 919.895C73.2004 921.339 72.8961 922.887 72.9 924.45L73 986.24H29.46L80.31 863.15C90.1823 838.843 97.4529 813.558 102 787.72C108.104 754.16 125.802 723.809 152.005 701.97C178.207 680.13 211.249 668.188 245.36 668.23C264.559 668.209 282.965 660.573 296.542 646.999C310.118 633.424 317.756 615.019 317.78 595.82V575.11C318.358 573.326 318.507 571.43 318.213 569.578C317.92 567.725 317.193 565.968 316.091 564.45C314.989 562.932 313.544 561.696 311.874 560.843C310.204 559.99 308.356 559.543 306.48 559.54V559.54ZM237.85 114.18C254.676 94.7148 276.379 80.0774 300.73 71.77L301 179.48C301.013 182.625 302.272 185.636 304.5 187.855C306.728 190.074 309.745 191.32 312.89 191.32H434.1C435.662 191.323 437.209 191.017 438.652 190.421C440.096 189.826 441.408 188.951 442.513 187.848C443.619 186.744 444.496 185.434 445.094 183.991C445.692 182.548 446 181.002 446 179.44V71.9C474.351 81.5778 498.965 99.8819 516.394 124.248C533.822 148.615 543.192 177.822 543.19 207.78V252.36C469.62 293.9 390.25 306.49 307.09 289.74C254.6 279.17 216.36 259.46 203.17 252.01V207.78C203.162 173.433 215.474 140.222 237.87 114.18H237.85ZM324.41 23.76H421.91V55.76C421.911 56.6754 422.015 57.5878 422.22 58.48V167.56H324.76L324.41 42.92V23.76V23.76ZM245.36 644.47C205.687 644.428 167.259 658.323 136.787 683.729C106.315 709.134 85.7347 744.436 78.64 783.47C74.3853 807.653 67.5841 831.318 58.35 854.07L0.940011 993C0.158032 994.865 -0.150318 996.895 0.0424413 998.908C0.235201 1000.92 0.923082 1002.86 2.04478 1004.54C3.16647 1006.22 4.68713 1007.6 6.47123 1008.55C8.25533 1009.51 10.2474 1010 12.27 1010H734.73C736.753 1010 738.744 1009.51 740.529 1008.55C742.313 1007.6 743.833 1006.22 744.956 1004.54C746.078 1002.86 746.767 1000.92 746.962 998.909C747.156 996.896 746.85 994.866 746.07 993L687.76 851.9C678.95 830.714 672.575 808.595 668.76 785.97C662.138 746.422 641.709 710.503 611.104 684.595C580.498 658.688 541.698 644.471 501.6 644.47C488.345 644.451 475.638 639.178 466.265 629.805C456.892 620.432 451.619 607.725 451.6 594.47V582.75C480.805 579.866 507.896 566.233 527.615 544.498C547.334 522.763 558.274 494.477 558.31 465.13V446.06L630.49 364.94C640.33 353.883 646.763 340.217 649.015 325.588C651.267 310.958 649.241 295.99 643.182 282.486C637.122 268.982 627.288 257.517 614.862 249.474C602.437 241.43 587.952 237.15 573.15 237.15H569.43C568.59 237.151 567.752 237.238 566.93 237.41V207.78C566.926 171.494 555.13 136.192 533.318 107.193C511.507 78.1935 480.861 57.0683 446 47V31.89C445.999 30.9944 445.895 30.1018 445.69 29.23V12.23C445.677 8.98008 444.376 5.86794 442.072 3.57551C439.768 1.28308 436.65 -0.00266931 433.4 4.1609e-06H312.92C309.667 0.00265243 306.547 1.29623 304.247 3.59673C301.946 5.89723 300.653 9.01661 300.65 12.27V46.87C265.708 56.889 234.977 78.0092 213.101 107.039C191.224 136.069 179.391 171.43 179.39 207.78V237.41C178.561 237.238 177.717 237.151 176.87 237.15H173.15C158.606 237.152 144.361 241.286 132.075 249.071C119.79 256.855 109.968 267.97 103.756 281.121C97.5428 294.272 95.1941 308.917 96.983 323.351C98.7719 337.785 104.625 351.414 113.86 362.65L188.7 453.7V465.52C188.745 494.585 199.516 522.61 218.948 544.225C238.379 565.839 265.104 579.522 294 582.65V595.82C293.984 608.72 288.852 621.086 279.73 630.207C270.607 639.327 258.24 644.457 245.34 644.47H245.36Z" fill="white"/>
<path d="M147.75 835.31C147.75 838.461 149.002 841.482 151.23 843.71C153.458 845.938 156.479 847.19 159.63 847.19H324.79C327.941 847.19 330.962 845.938 333.19 843.71C335.418 841.482 336.67 838.461 336.67 835.31C336.67 832.159 335.418 829.137 333.19 826.909C330.962 824.682 327.941 823.43 324.79 823.43H159.63C156.479 823.43 153.458 824.682 151.23 826.909C149.002 829.137 147.75 832.159 147.75 835.31V835.31Z" fill="white"/>
<path d="M324.79 899.47H159.63C156.538 899.56 153.602 900.851 151.446 903.07C149.291 905.289 148.085 908.261 148.085 911.355C148.085 914.449 149.291 917.421 151.446 919.64C153.602 921.859 156.538 923.15 159.63 923.24H324.79C327.882 923.15 330.818 921.859 332.974 919.64C335.129 917.421 336.335 914.449 336.335 911.355C336.335 908.261 335.129 905.289 332.974 903.07C330.818 900.851 327.882 899.56 324.79 899.47V899.47Z" fill="white"/>
<path d="M435.29 847.19H600.44C603.591 847.19 606.613 845.938 608.84 843.71C611.068 841.482 612.32 838.461 612.32 835.31C612.32 832.159 611.068 829.137 608.84 826.909C606.613 824.682 603.591 823.43 600.44 823.43H435.29C432.139 823.43 429.118 824.682 426.89 826.909C424.662 829.137 423.41 832.159 423.41 835.31C423.41 838.461 424.662 841.482 426.89 843.71C429.118 845.938 432.139 847.19 435.29 847.19V847.19Z" fill="white"/>
<path d="M435.29 923.24H600.44C603.532 923.15 606.468 921.859 608.624 919.64C610.779 917.421 611.985 914.449 611.985 911.355C611.985 908.261 610.779 905.289 608.624 903.07C606.468 900.851 603.532 899.56 600.44 899.47H435.29C432.198 899.56 429.262 900.851 427.106 903.07C424.951 905.289 423.745 908.261 423.745 911.355C423.745 914.449 424.951 917.421 427.106 919.64C429.262 921.859 432.198 923.15 435.29 923.24V923.24Z" fill="white"/>
</g>
<defs>
<clipPath id="clip0_5_10">
<rect width="747.01" height="1010" fill="white"/>
</clipPath>
</defs>
</svg>
