<svg xmlns="http://www.w3.org/2000/svg" viewBox="0 0 747.01 1010"><defs><style>.cls-1{fill:#c32128;}</style></defs><g id="Layer_2" data-name="Layer 2"><g id="Layer_1-2" data-name="Layer 1"><g id="NewGroupe0"><g id="NewGroup46-0"><path class="cls-1" d="M306.48,559.54a94.13,94.13,0,0,1-94-94v-9.47a10.43,10.43,0,0,0,.09-1.38V339.85a11.88,11.88,0,1,0-23.76,0v76.54l-56.58-68.83a53,53,0,0,1,40.73-86.65c3.34,2.6,6.83,5.24,10.69,8.07a12.19,12.19,0,0,0,5.12,2.17c11.87,7,53.29,29.58,112.67,41.7a377.41,377.41,0,0,0,75.42,7.71,356.59,356.59,0,0,0,45.82-2.93c47.19-6.11,92.87-21.83,135.91-46.7a12.18,12.18,0,0,0,4.13-2c3.86-2.83,7.35-5.47,10.67-8a53,53,0,0,1,39.37,88.23l-54.43,61.17V339.85a11.89,11.89,0,1,0-23.77,0V465.13a94.51,94.51,0,0,1-94.4,94.41,12.28,12.28,0,0,0-12.27,12.27v22.65a73.85,73.85,0,0,0,73.77,73.77A145.13,145.13,0,0,1,645.36,789.86,326.32,326.32,0,0,0,665.8,861l51.75,125.26H679l-.13-61.84A11.88,11.88,0,0,0,667,912.54h0a11.88,11.88,0,0,0-11.86,11.91l.12,61.79H96.78l-.12-61.84a11.88,11.88,0,0,0-11.88-11.86h0A11.88,11.88,0,0,0,72.9,924.45L73,986.24H29.46L80.31,863.15A371.62,371.62,0,0,0,102,787.72,145.53,145.53,0,0,1,245.36,668.23a72.5,72.5,0,0,0,72.42-72.41V575.11a11.9,11.9,0,0,0-11.3-15.57ZM237.85,114.18a145,145,0,0,1,62.88-42.41L301,179.48a11.89,11.89,0,0,0,11.89,11.84H434.1A11.88,11.88,0,0,0,446,179.44V71.9a143.57,143.57,0,0,1,97.19,135.88v44.58c-73.57,41.54-152.94,54.13-236.1,37.38-52.49-10.57-90.73-30.28-103.92-37.73V207.78a143.5,143.5,0,0,1,34.7-93.6Zm86.56-90.42h97.5v32a12.26,12.26,0,0,0,.31,2.72V167.56H324.76l-.35-124.64V23.76ZM245.36,644.47a169.27,169.27,0,0,0-166.72,139,348.14,348.14,0,0,1-20.29,70.6L.94,993a12.26,12.26,0,0,0,11.33,17H734.73a12.27,12.27,0,0,0,11.34-17L687.76,851.9a302.84,302.84,0,0,1-19-65.93,169.49,169.49,0,0,0-167.16-141.5,50.07,50.07,0,0,1-50-50V582.75A118.34,118.34,0,0,0,558.31,465.13V446.06l72.18-81.12a76.76,76.76,0,0,0-57.34-127.79h-3.72a12.34,12.34,0,0,0-2.5.26V207.78A167.37,167.37,0,0,0,446,47V31.89a11.66,11.66,0,0,0-.31-2.66v-17A12.28,12.28,0,0,0,433.4,0H312.92a12.28,12.28,0,0,0-12.27,12.27v34.6A167.4,167.4,0,0,0,179.39,207.78v29.63a12.46,12.46,0,0,0-2.52-.26h-3.72a76.76,76.76,0,0,0-59.29,125.5L188.7,453.7v11.82A118,118,0,0,0,294,582.65v13.17a48.71,48.71,0,0,1-48.66,48.65Z"/><path class="cls-1" d="M147.75,835.31a11.88,11.88,0,0,0,11.88,11.88H324.79a11.88,11.88,0,0,0,0-23.76H159.63a11.88,11.88,0,0,0-11.88,11.88Z"/><path class="cls-1" d="M324.79,899.47H159.63a11.89,11.89,0,0,0,0,23.77H324.79a11.89,11.89,0,0,0,0-23.77Z"/><path class="cls-1" d="M435.29,847.19H600.44a11.88,11.88,0,0,0,0-23.76H435.29a11.88,11.88,0,1,0,0,23.76Z"/><path class="cls-1" d="M435.29,923.24H600.44a11.89,11.89,0,0,0,0-23.77H435.29a11.89,11.89,0,0,0,0,23.77Z"/></g></g></g></g></svg>