<svg xmlns="http://www.w3.org/2000/svg" viewBox="0 0 1010 1010"><defs><style>.cls-1{fill:#c32128;}</style></defs><g id="Layer_2" data-name="Layer 2"><g id="Layer_1-2" data-name="Layer 1"><g id="NewGroupe0"><g id="NewGroup57-0"><path class="cls-1" d="M505,104.23C726,104.23,905.77,284,905.77,505A398.9,398.9,0,0,1,805.56,769.82L282.75,171.65A397.39,397.39,0,0,1,505,104.23ZM796.43,795.48a11.87,11.87,0,0,0,8.72,4.06h.23A11.88,11.88,0,0,0,814,795.8,422.77,422.77,0,0,0,929.54,505C929.54,270.91,739.09,80.46,505,80.46A421.21,421.21,0,0,0,258.13,159.8a11.88,11.88,0,0,0-2,17.48l540.32,618.2Z"/><path class="cls-1" d="M204.33,240.3,727.12,838.44A397.35,397.35,0,0,1,505,905.77C284,905.77,104.23,726,104.23,505a398.94,398.94,0,0,1,100.1-264.7ZM505,929.54a421.09,421.09,0,0,0,246.73-79.25,11.86,11.86,0,0,0,2-17.47L213.46,214.64a11.88,11.88,0,0,0-17.6-.32A422.72,422.72,0,0,0,80.46,505c0,234.09,190.45,424.54,424.54,424.54Z"/><path class="cls-1" d="M61.59,317.67A482.73,482.73,0,1,1,23.76,505,479.45,479.45,0,0,1,61.59,317.67Zm86.32,544.42A503.65,503.65,0,1,0,39.71,701.58a503.05,503.05,0,0,0,108.2,160.51Z"/></g></g></g></g></svg>