<svg xmlns="http://www.w3.org/2000/svg" viewBox="0 0 1010 341.21"><defs><style>.cls-1{fill:#c32128;}</style></defs><g id="Layer_2" data-name="Layer 2"><g id="Layer_1-2" data-name="Layer 1"><g id="NewGroupe0"><g id="NewGroup51-0"><path class="cls-1" d="M122.23,256.14H248.79v25.94H126.46c-56.63,0-102.7-39.92-102.7-89s46.07-89,102.7-89H248.79v28.44H122.23c-37.82,0-68.58,27.72-68.58,61.79s30.76,61.81,68.58,61.81Zm154.58,0h4.93v25.94h-9.18V256.14Zm-4.25-152h9.18v28.43h-9.18V104.1ZM122.23,156.3h171.4a11.88,11.88,0,0,0,11.88-11.88V92.22a11.88,11.88,0,0,0-11.88-11.88H126.46C56.73,80.34,0,130.92,0,193.09S56.73,305.84,126.46,305.84H293.63A11.88,11.88,0,0,0,305.51,294V244.25a11.88,11.88,0,0,0-11.88-11.88H122.23c-24.72,0-44.82-17.06-44.82-38s20.1-38,44.82-38Z"/><polygon class="cls-1" points="416.42 92.92 416.42 113.48 364.23 112.8 427.8 142.55 427.8 122.12 481.99 122.81 416.42 92.92 416.42 92.92"/><polygon class="cls-1" points="371.29 137.4 371.29 147.18 346.47 146.85 376.7 161 376.7 151.29 402.46 151.62 371.29 137.4 371.29 137.4"/><polygon class="cls-1" points="341.7 75.75 341.7 85.53 316.89 85.2 347.12 99.35 347.12 89.64 372.88 89.97 341.7 75.75 341.7 75.75"/><polygon class="cls-1" points="481.99 269.62 427.8 270.31 427.8 249.88 364.23 279.63 416.42 278.94 416.42 299.51 481.99 269.62 481.99 269.62"/><polygon class="cls-1" points="402.46 240.81 376.7 241.14 376.7 231.43 346.47 245.57 371.29 245.25 371.29 255.03 402.46 240.81 402.46 240.81"/><polygon class="cls-1" points="372.88 302.46 347.12 302.79 347.12 293.08 316.89 307.22 341.7 306.9 341.7 316.68 372.88 302.46 372.88 302.46"/><path class="cls-1" d="M986.24,275.39a18,18,0,0,1-18,18c-.17,0-.33,0-.49,0l-.44,0h-.12V243a11.89,11.89,0,0,0-23.77,0v50a11.9,11.9,0,0,0-3,.35H897.21v-73.1a35.87,35.87,0,0,0-12.27-27l-3.41-3a12.23,12.23,0,0,0,.29-2.59v-38c4.71,0,10.19,0,16.51,0h34.12a18,18,0,0,1,11.84,4.44l37.81,33a12.06,12.06,0,0,1,4.14,9.09v79.15ZM873.45,299.44a18.14,18.14,0,0,1-.35,3.53,18,18,0,0,1-12.82,13.8,12,12,0,0,0-4.8-.93h-.12V266.93a11.89,11.89,0,0,0-23.77,0v49.36a12,12,0,0,0-4.72,1.15H711.29V264.7a11.89,11.89,0,0,0-23.77,0v52.74h-6.35A18,18,0,0,1,663.5,303a17.78,17.78,0,0,1-.34-3.51V220.29a12.09,12.09,0,0,1,4.13-9.09l37.81-33a18,18,0,0,1,11.84-4.44h33.24a11.82,11.82,0,0,0,4.87-1.05v40.51a11.88,11.88,0,1,0,23.76,0V171a11.86,11.86,0,0,0,7.62,2.76h33.24a18,18,0,0,1,11.84,4.44l37.8,33a12.06,12.06,0,0,1,4.14,9.09v79.15ZM568,293.39h-1.69a18,18,0,0,1-18-18V196.24a12.09,12.09,0,0,1,4.13-9.09l37.82-33a18,18,0,0,1,11.83-4.44h33.24l1.69,0c7.26-.08,12.25-.08,15.71-.05v39.87a11.62,11.62,0,0,0,.29,2.59l-1.35,1.18a35.86,35.86,0,0,0-12.27,27v73.1h-42l-3.44,0V240.23a11.88,11.88,0,0,0-23.76,0v52.9a12,12,0,0,0-2.15.26ZM618.85,37.52a46.56,46.56,0,0,1,33.63-13.75A47.3,47.3,0,0,1,698.6,64.2a11.85,11.85,0,0,0,2.21,5.4c-.62,1.62-1.19,3.26-1.69,4.94a70.17,70.17,0,0,0-2.42,11.64c-.21,1.69-.35,3.42-.43,5.16a11.73,11.73,0,0,0-4.18,4,47,47,0,1,1-73.24-57.87ZM766.94,47.81h.4A47.17,47.17,0,0,1,810,76a46.08,46.08,0,0,1,3.94,18.26v.12a47,47,0,0,1-47.39,47.37h0A47,47,0,0,1,720.29,89a46,46,0,0,1,1.6-7.7,47.22,47.22,0,0,1,45.05-33.53Zm113.19-24A47.19,47.19,0,0,1,926.7,70.34a47,47,0,0,1-47,47.4h-.42a47.14,47.14,0,0,1-38.19-20.31,11.87,11.87,0,0,0-3.43-3.28,70,70,0,0,0-5.94-27.66,11.75,11.75,0,0,0,1.78-4.39,46.9,46.9,0,0,1,46.61-38.33Zm-203.65,126h46.07c.11.1.24.19.36.29h-6a41.75,41.75,0,0,0-27.46,10.29l-13,11.34V149.73ZM835.62,126h-5.15c.52-1,1-2.11,1.47-3.18q1.78,1.65,3.68,3.18Zm-134.16-4.51c.63,1.53,1.3,3,2,4.51h-7.1q2.64-2.13,5.07-4.51Zm145.67,38.85A41.75,41.75,0,0,0,819.67,150h-1.48a28.82,28.82,0,0,1,4-.29h30.63a11.91,11.91,0,0,0,5.18.33v19.78l-10.92-9.53Zm150.6,8.93-37.81-33A41.78,41.78,0,0,0,932.45,126H924a74.31,74.31,0,0,0,5.79-5.19,70.22,70.22,0,0,0,20.72-50.64C950.14,31.79,918.67.33,880.33,0h-.62a70.67,70.67,0,0,0-65,42.73,70.68,70.68,0,0,0-47.17-18.68h-.6a71,71,0,0,0-49.35,20.14A71.29,71.29,0,0,0,652.68,0a70.64,70.64,0,0,0-44.63,126h-6a41.75,41.75,0,0,0-27.46,10.29l-37.82,33a35.85,35.85,0,0,0-12.26,27v79.15a41.82,41.82,0,0,0,41.77,41.77h2.46a17.41,17.41,0,0,0,3.15-.28l23.39.26.43,0h47.61a41.88,41.88,0,0,0,37.82,24h147.3A17.88,17.88,0,0,0,835,340l14.69-.27a11.93,11.93,0,0,0,5.77,1.49,41.75,41.75,0,0,0,37.82-24h48a18.44,18.44,0,0,0,2.35-.17l23.51.17h.09l.51,0c.16,0,.33,0,.5,0A41.79,41.79,0,0,0,1010,275.39V196.24a35.87,35.87,0,0,0-12.27-27Z"/></g></g></g></g></svg>