<svg xmlns="http://www.w3.org/2000/svg" viewBox="0 0 769.01 1010"><defs><style>.cls-1{fill:#c32128;}</style></defs><g id="Layer_2" data-name="Layer 2"><g id="Layer_1-2" data-name="Layer 1"><g id="NewGroupe0"><g id="NewGroup69-0"><path class="cls-1" d="M24.28,909.74V100.26a76.06,76.06,0,0,1,76-76H668.75a76.07,76.07,0,0,1,76,76V909.74a76.07,76.07,0,0,1-76,76H100.26a76.06,76.06,0,0,1-76-76Zm744.73,0V100.26A100.38,100.38,0,0,0,668.75,0H100.26A100.38,100.38,0,0,0,0,100.26V909.74A100.38,100.38,0,0,0,100.26,1010H668.75A100.38,100.38,0,0,0,769,909.74Z"/><path class="cls-1" d="M78.91,909.74V100.26a21.37,21.37,0,0,1,21.35-21.35H668.75a21.38,21.38,0,0,1,21.35,21.35V909.74a21.38,21.38,0,0,1-21.35,21.35H100.26a21.37,21.37,0,0,1-21.35-21.35Zm635.47,0V100.26a45.68,45.68,0,0,0-45.63-45.63H100.26a45.68,45.68,0,0,0-45.63,45.63V909.74a45.68,45.68,0,0,0,45.63,45.63H668.75a45.68,45.68,0,0,0,45.63-45.63Z"/><path class="cls-1" d="M628.2,818.2H432.45v-12H628.2v12Zm.55-36.31H431.91a23.75,23.75,0,0,0-23.73,23.73v13.12a23.76,23.76,0,0,0,23.73,23.74H628.75a23.76,23.76,0,0,0,23.73-23.74V805.62a23.75,23.75,0,0,0-23.73-23.73Z"/><path class="cls-1" d="M633.25,474.14,516.69,591.67a1.68,1.68,0,0,1-1.17.49h0a1.65,1.65,0,0,1-1.17-.48l-22-21.85a1.58,1.58,0,0,1-.49-1.16,1.82,1.82,0,0,1,.06-.35l.17-.15L608.61,450.41a8.62,8.62,0,0,0,.63-.71,1.58,1.58,0,0,1,.83-.22,1.65,1.65,0,0,1,1.17.48l22,21.84h0a1.6,1.6,0,0,1,.49,1.17,1.56,1.56,0,0,1-.49,1.17Zm-447.31,231-.12.12a21.94,21.94,0,0,1-31.2-30.85L370,463.3l31,31-215,210.81ZM277.66,355a1.68,1.68,0,0,1-.49-1.17,1.59,1.59,0,0,1,.49-1.17L394.23,235.16a1.64,1.64,0,0,1,1.17-.49h0a1.65,1.65,0,0,1,1.17.48l22,21.84h0a1.69,1.69,0,0,1,.34.51,13.54,13.54,0,0,0-1.22,1.07L301.49,377.21a1.63,1.63,0,0,1-1.81-.34l-22-21.84ZM427.27,485.3l-48.38-48a12.51,12.51,0,0,0-2.5-1.9l-49.32-49.31,100.15-101L582.8,441.8,483.2,542.21l-53.54-53.53a12,12,0,0,0-2.39-3.38Zm201.07-52.58a25.8,25.8,0,0,0-18.27-7.52H610a26.15,26.15,0,0,0-8.1,1.34L442.22,265.79a26,26,0,0,0-6.54-26l-22-21.84a25.76,25.76,0,0,0-18.26-7.52h-.11A25.76,25.76,0,0,0,377,218.07L260.44,335.58a25.93,25.93,0,0,0,.13,36.69l22,21.84a25.85,25.85,0,0,0,24.82,6.64l45.38,45.38-215.23,211-.12.12A46.22,46.22,0,0,0,203,722.41L418.14,511.49l50.34,50.35a26.18,26.18,0,0,0-.92,6.92,25.71,25.71,0,0,0,7.67,18.31l22,21.85a25.79,25.79,0,0,0,18.27,7.51h.11a25.77,25.77,0,0,0,18.31-7.67L650.48,491.25a25.92,25.92,0,0,0-.14-36.69l-22-21.84Z"/></g></g></g></g></svg>