<svg xmlns="http://www.w3.org/2000/svg" viewBox="0 0 682.68 1010"><defs><style>.cls-1{fill:#c32128;}</style></defs><g id="Layer_2" data-name="Layer 2"><g id="Layer_1-2" data-name="Layer 1"><g id="NewGroupe0"><g id="NewGroup94-0"><path class="cls-1" d="M341.28,339.84a60.51,60.51,0,1,1,60.5-60.51,60.58,60.58,0,0,1-60.5,60.51Zm0-144.78a84.27,84.27,0,1,0,84.27,84.27,84.37,84.37,0,0,0-84.27-84.27Z"/><path class="cls-1" d="M462.61,448.12H420.18a8.19,8.19,0,0,0,0,16.38h42.43a8.19,8.19,0,1,0,0-16.38Z"/><path class="cls-1" d="M658.47,490l-44.05,76.66a3.28,3.28,0,0,1-4.47,1.2l-53.52-30.75a11.87,11.87,0,0,0-11.87,0,11.74,11.74,0,0,0-2.57,2c-2.31,2-12.46,8.07-18.68,11.81V447.83a12,12,0,0,0-.85-4.42,17.8,17.8,0,0,0-2.84-5.86,250.48,250.48,0,0,0-114-86.62,11.87,11.87,0,0,0-15,6.28l-23.32,52.31a27.09,27.09,0,0,0-52.16-2.14l-22.44-50.33a11.88,11.88,0,0,0-15-6.3,250.54,250.54,0,0,0-114,86.24,122,122,0,0,1-21.41-55.08,206.56,206.56,0,0,1-1.58-25.52A204.78,204.78,0,0,1,345.41,151.58H346a204.89,204.89,0,0,1,181.3,299.13,11.88,11.88,0,1,0,21.08,11A226,226,0,0,0,574,358.78c.62-61.2-22.85-119-66.09-162.83S407.16,128,346,127.81h-.6A228.56,228.56,0,0,0,116.86,356.39a232.4,232.4,0,0,0,1.75,28.45,146.7,146.7,0,0,0,41,84.41v64L78,574.21l-.66.35a3.29,3.29,0,0,1-4.49-1.18L28.34,497a3.27,3.27,0,0,1,1.18-4.49l57.24-33.37A11.86,11.86,0,0,0,92,445a270,270,0,0,1-5.4-159.85A11.88,11.88,0,0,0,81,271.65l-55.6-31.71a3.28,3.28,0,0,1-1.23-4.48L68,158.68a3.28,3.28,0,0,1,4.48-1.23l51.94,29.63a11.89,11.89,0,0,0,15-2.7A269.94,269.94,0,0,1,282,95.52,11.88,11.88,0,0,0,291.13,84V27a3.29,3.29,0,0,1,3.28-3.28h88.4A3.29,3.29,0,0,1,386.09,27V81a11.87,11.87,0,0,0,9.67,11.67,266,266,0,0,1,81.62,29.91,269.5,269.5,0,0,1,66.71,53.31,11.88,11.88,0,0,0,14.74,2.3l47.55-27.52a3.28,3.28,0,0,1,4.48,1.19l44.28,76.51a3.3,3.3,0,0,1-1.2,4.49l-47.55,27.52A11.87,11.87,0,0,0,601,274.34a269.85,269.85,0,0,1-1,167.25,11.88,11.88,0,0,0,5.34,14.08l51.92,29.83a3.28,3.28,0,0,1,1.22,4.48ZM462.53,636.66h-.27l-8-111.87a11.89,11.89,0,0,0-23.71,1.69l9.91,138.68,1,287.44a33.63,33.63,0,0,1-67.19,2L354.1,674.37a11.88,11.88,0,0,0-11.85-11H340.7a11.88,11.88,0,0,0-11.85,11.12L310.72,954.74a33.62,33.62,0,0,1-67.18-2.17l-1.06-287.44,9.9-138.57a11.88,11.88,0,1,0-23.7-1.69l-8,111.79H196.1A12.72,12.72,0,0,1,183.4,624V450.19c24.38-32.71,55.35-57.23,92.21-73l39.19,87.9a11.88,11.88,0,0,0,22.73-4.84V415.74a3.34,3.34,0,0,1,1.05-2.44,3.2,3.2,0,0,1,2.51-.93,3.7,3.7,0,0,1,3.2,3.8v47.41A11.88,11.88,0,0,0,367,468.41l40.6-91.06c36.75,15.83,67.63,40.35,91.93,73V570.73a11.72,11.72,0,0,0,0,4V623c-3.81,5.4-25.94,13.63-37,13.63ZM669.09,464.89l-43.62-25.06a293.84,293.84,0,0,0,1-163.56l39.4-22.8a27.1,27.1,0,0,0,9.87-37L631.42,140a27.07,27.07,0,0,0-36.95-9.85l-39.38,22.8a293,293,0,0,0-66-51,289.56,289.56,0,0,0-79.24-30.57V27a27.07,27.07,0,0,0-27-27h-88.4a27.07,27.07,0,0,0-27.05,27V74.78A294.27,294.27,0,0,0,127.7,161.6L84.24,136.81a27.09,27.09,0,0,0-36.9,10.08l-43.8,76.8a27.09,27.09,0,0,0,10.1,36.89L61.37,287.8a294.11,294.11,0,0,0,5.1,155.67L17.55,472a27.07,27.07,0,0,0-9.74,37l44.51,76.37a27.07,27.07,0,0,0,36.62,10l70.7-35.47V624a36.49,36.49,0,0,0,36.46,36.46H219l-.24,3.46a8.82,8.82,0,0,0,0,.89l1.05,287.84a57.39,57.39,0,0,0,114.67,3.65L342.08,838l8.54,118.23a57.39,57.39,0,0,0,114.67-3.68l-1.06-287.89c0-.27,0-.53,0-.8l-.25-3.49c15.61-.69,59.36-12.12,59.36-36.43v-45.2c3.5-2.22,8.38-5.15,12.07-7.37,7.1-4.27,12.22-7.38,16-9.82l46.78,26.88a27.06,27.06,0,0,0,36.92-10l44-76.65a27,27,0,0,0-10-36.93Z"/></g></g></g></g></svg>