<svg xmlns="http://www.w3.org/2000/svg" viewBox="0 0 1010 948.11"><defs><style>.cls-1{fill:#c32128;}</style></defs><g id="Layer_2" data-name="Layer 2"><g id="Layer_1-2" data-name="Layer 1"><g id="NewGroupe0"><g id="NewGroup54-0"><path class="cls-1" d="M23.76,23.76H179V49H23.76V23.76ZM167.31,253.6H392.8V361.71H166.42A119.25,119.25,0,0,1,47.31,242.61V72.75H155.42v169a11.88,11.88,0,0,0,11.89,11.88Zm249.25-23.55h25.22V385.26H416.56V230.05ZM166.42,385.48H392.8v11.67A11.88,11.88,0,0,0,404.68,409h49a11.88,11.88,0,0,0,11.89-11.88v-179a11.88,11.88,0,0,0-11.89-11.88h-49a11.88,11.88,0,0,0-11.88,11.88v11.67H179.19V72.75h11.67a11.88,11.88,0,0,0,11.88-11.89v-49A11.88,11.88,0,0,0,190.86,0h-179A11.88,11.88,0,0,0,0,11.88v49A11.88,11.88,0,0,0,11.88,72.75H23.55V242.61c0,78.78,64.09,142.87,142.87,142.87Z"/><path class="cls-1" d="M962.69,729.84c0,94.26-76.69,170.95-171,170.95H626.62V792.68H791.73a62.92,62.92,0,0,0,62.85-62.84v-53H962.69v53ZM602.86,924.34H577.64V769.13h25.22V924.34ZM831,627.84H986.24v25.22H831V627.84Zm167.09-23.76h-179A11.88,11.88,0,0,0,807.26,616v49a11.88,11.88,0,0,0,11.88,11.88h11.67v53a39.12,39.12,0,0,1-39.08,39.08H626.62V757.25a11.88,11.88,0,0,0-11.88-11.88h-49a11.88,11.88,0,0,0-11.89,11.88v179a11.89,11.89,0,0,0,11.89,11.89h49a11.88,11.88,0,0,0,11.88-11.89V924.56H791.73c107.37,0,194.72-87.35,194.72-194.72v-53h11.67A11.88,11.88,0,0,0,1010,664.94V616a11.88,11.88,0,0,0-11.88-11.88Z"/><path class="cls-1" d="M986.24,540.69H831V515.47H986.24v25.22Zm-155.86-179H588.94V253.6H830.38c73,0,132.31,59.36,132.31,132.31V491.7H854.58V385.91a24.23,24.23,0,0,0-24.2-24.2Zm-265.2,23.55H540V230.05h25.22V385.26ZM998.12,491.7H986.45V385.91c0-86.06-70-156.07-156.07-156.07H588.94V218.17a11.88,11.88,0,0,0-11.88-11.88h-49a11.88,11.88,0,0,0-11.88,11.88v179A11.88,11.88,0,0,0,528.08,409h49a11.88,11.88,0,0,0,11.88-11.88V385.48H830.38a.44.44,0,0,1,.43.43V491.7H819.14a11.89,11.89,0,0,0-11.88,11.89v49a11.88,11.88,0,0,0,11.88,11.88h179A11.88,11.88,0,0,0,1010,552.57v-49a11.89,11.89,0,0,0-11.88-11.89Z"/></g></g></g></g></svg>